{
	"asset":{
		"generator":"Khronos glTF Blender I/O v5.0.21",
		"version":"2.0"
	},
	"scene":0,
	"scenes":[
		{
			"name":"Scene",
			"nodes":[
				0,
				2,
				3,
				4,
				5,
				6,
				7
			]
		}
	],
	"nodes":[
		{
			"mesh":0,
			"name":"Cake",
			"scale":[
				0.9521910548210144,
				0.9182052612304688,
				0.9521910548210144
			],
			"translation":[
				0,
				1.8900001049041748,
				0
			]
		},
		{
			"mesh":1,
			"name":"Base-2",
			"scale":[
				1.007614016532898,
				1.0076141357421875,
				1.0076141357421875
			],
			"translation":[
				0,
				0,
				-27.200000762939453
			]
		},
		{
			"children":[
				1
			],
			"name":"stand",
			"rotation":[
				0.70710688829422,
				0,
				0,
				0.7071066498756409
			],
			"scale":[
				0.06730819493532181,
				0.06730816513299942,
				0.06730816513299942
			]
		},
		{
			"mesh":2,
			"name":"chandel",
			"rotation":[
				-0.70710688829422,
				0,
				0,
				0.7071066498756409
			],
			"scale":[
				-0.032398007810115814,
				-0.03239800035953522,
				-0.03239800035953522
			],
			"translation":[
				0.016614342108368874,
				2.3299996852874756,
				0.06408972293138504
			]
		},
		{
			"mesh":3,
			"name":"nuts",
			"rotation":[
				0.11667908728122711,
				0.6974138021469116,
				-0.6974138021469116,
				0.11667913943529129
			],
			"scale":[
				0.1776951104402542,
				0.17769503593444824,
				0.17769497632980347
			],
			"translation":[
				0.08000002801418304,
				2.309999942779541,
				0.41999998688697815
			]
		},
		{
			"mesh":4,
			"name":"bar",
			"rotation":[
				-0.3871666193008423,
				-0.8715487718582153,
				0.2227635681629181,
				0.20219086110591888
			],
			"scale":[
				0.09674941748380661,
				0.09674941748380661,
				0.0967494398355484
			],
			"translation":[
				0,
				2.5,
				0
			]
		},
		{
			"mesh":5,
			"name":"balls",
			"rotation":[
				-0.8819843530654907,
				-0.10750564932823181,
				-0.24399906396865845,
				0.388601154088974
			],
			"scale":[
				-0.06322962790727615,
				-0.06322964280843735,
				-0.06322963535785675
			],
			"translation":[
				0.26943549513816833,
				2.4380087852478027,
				-0.05041871964931488
			]
		},
		{
			"mesh":6,
			"name":"Cake_Rectangle"
		}
	],
	"materials":[
		{
			"doubleSided":true,
			"name":"Cake",
			"pbrMetallicRoughness":{
				"baseColorFactor":[
					0.798916220664978,
					0.3718603551387787,
					0.8000000715255737,
					1
				],
				"metallicFactor":0,
				"roughnessFactor":0.7134328484535217
			}
		},
		{
			"doubleSided":true,
			"name":"Strip Part",
			"pbrMetallicRoughness":{
				"baseColorFactor":[
					0.800000011920929,
					0.800000011920929,
					0.800000011920929,
					1
				],
				"roughnessFactor":0.5527864098548889
			}
		},
		{
			"doubleSided":true,
			"name":"Primary Part",
			"pbrMetallicRoughness":{
				"baseColorFactor":[
					0.800000011920929,
					0.800000011920929,
					0.800000011920929,
					1
				],
				"roughnessFactor":0.5527864098548889
			}
		},
		{
			"doubleSided":true,
			"name":"Add Part M",
			"pbrMetallicRoughness":{
				"baseColorFactor":[
					0.800000011920929,
					0.800000011920929,
					0.800000011920929,
					1
				],
				"roughnessFactor":0.5527864098548889
			}
		},
		{
			"doubleSided":true,
			"name":"plastic1",
			"pbrMetallicRoughness":{
				"baseColorFactor":[
					0.9054136872291565,
					0.9054136872291565,
					0.9054136872291565,
					1
				],
				"roughnessFactor":0.4763636589050293
			}
		},
		{
			"doubleSided":true,
			"name":"chandel",
			"pbrMetallicRoughness":{
				"baseColorFactor":[
					1,
					0.7438003420829773,
					0.06327110528945923,
					1
				],
				"roughnessFactor":0.5
			}
		},
		{
			"doubleSided":true,
			"name":"Default",
			"pbrMetallicRoughness":{
				"baseColorFactor":[
					0.39015689492225647,
					0.1246422529220581,
					0.05855438858270645,
					1
				],
				"metallicFactor":0.29357796907424927,
				"roughnessFactor":0.5527864098548889
			}
		},
		{
			"doubleSided":true,
			"name":"choco",
			"pbrMetallicRoughness":{
				"baseColorFactor":[
					0.8000000715255737,
					0.3774730861186981,
					0.1561039686203003,
					1
				],
				"metallicFactor":0.41044774651527405,
				"roughnessFactor":0.4000000059604645
			}
		},
		{
			"doubleSided":true,
			"name":"balls",
			"pbrMetallicRoughness":{
				"baseColorFactor":[
					0.8000000715255737,
					0.7753702402114868,
					0.4842037856578827,
					1
				],
				"metallicFactor":0.447761207818985,
				"roughnessFactor":0.4000000059604645
			}
		}
	],
	"meshes":[
		{
			"name":"Cake",
			"primitives":[
				{
					"attributes":{
						"POSITION":0,
						"NORMAL":1,
						"TEXCOORD_0":2
					},
					"indices":3,
					"material":0
				}
			]
		},
		{
			"name":"Mesh.004",
			"primitives":[
				{
					"attributes":{
						"POSITION":4,
						"NORMAL":5,
						"TEXCOORD_0":6,
						"TEXCOORD_1":7
					},
					"indices":8,
					"material":1
				},
				{
					"attributes":{
						"POSITION":9,
						"NORMAL":10,
						"TEXCOORD_0":11,
						"TEXCOORD_1":12
					},
					"indices":13,
					"material":2
				},
				{
					"attributes":{
						"POSITION":14,
						"NORMAL":15,
						"TEXCOORD_0":16,
						"TEXCOORD_1":17
					},
					"indices":18,
					"material":3
				},
				{
					"attributes":{
						"POSITION":19,
						"NORMAL":20,
						"TEXCOORD_0":21,
						"TEXCOORD_1":22
					},
					"indices":23,
					"material":4
				}
			]
		},
		{
			"name":"chandel",
			"primitives":[
				{
					"attributes":{
						"POSITION":24,
						"NORMAL":25,
						"TEXCOORD_0":26
					},
					"indices":27,
					"material":5
				}
			]
		},
		{
			"name":"Mesh.021",
			"primitives":[
				{
					"attributes":{
						"POSITION":28,
						"NORMAL":29,
						"TEXCOORD_0":30,
						"TEXCOORD_1":31,
						"TEXCOORD_2":32,
						"TEXCOORD_3":33,
						"TEXCOORD_4":34,
						"TEXCOORD_5":35,
						"TEXCOORD_6":36,
						"TEXCOORD_7":37
					},
					"indices":38,
					"material":6
				}
			]
		},
		{
			"name":"bar",
			"primitives":[
				{
					"attributes":{
						"POSITION":39,
						"NORMAL":40,
						"TEXCOORD_0":41
					},
					"indices":42,
					"material":7
				}
			]
		},
		{
			"name":"sphere-podium-01",
			"primitives":[
				{
					"attributes":{
						"POSITION":43,
						"NORMAL":44,
						"TEXCOORD_0":45
					},
					"indices":46,
					"material":8
				}
			]
		},
		{
			"name":"Cube.001",
			"primitives":[
				{
					"attributes":{
						"POSITION":47,
						"NORMAL":48,
						"TEXCOORD_0":49
					},
					"indices":50
				}
			]
		}
	],
	"accessors":[
		{
			"bufferView":0,
			"componentType":5126,
			"count":3763,
			"max":[
				1.0000001192092896,
				0.5049999952316284,
				1.0000001192092896
			],
			"min":[
				-1.0000001192092896,
				-0.5049999952316284,
				-1.0000001192092896
			],
			"type":"VEC3"
		},
		{
			"bufferView":1,
			"componentType":5126,
			"count":3763,
			"type":"VEC3"
		},
		{
			"bufferView":2,
			"componentType":5126,
			"count":3763,
			"type":"VEC2"
		},
		{
			"bufferView":3,
			"componentType":5123,
			"count":15906,
			"type":"SCALAR"
		},
		{
			"bufferView":4,
			"componentType":5126,
			"count":8170,
			"max":[
				8.75037956237793,
				8.747909545898438,
				26.213991165161133
			],
			"min":[
				-8.746509552001953,
				-8.748979568481445,
				26.122730255126953
			],
			"type":"VEC3"
		},
		{
			"bufferView":5,
			"componentType":5126,
			"count":8170,
			"type":"VEC3"
		},
		{
			"bufferView":6,
			"componentType":5126,
			"count":8170,
			"type":"VEC2"
		},
		{
			"bufferView":7,
			"componentType":5126,
			"count":8170,
			"type":"VEC2"
		},
		{
			"bufferView":8,
			"componentType":5123,
			"count":34560,
			"type":"SCALAR"
		},
		{
			"bufferView":9,
			"componentType":5126,
			"count":52093,
			"max":[
				8.853130340576172,
				8.853519439697266,
				26.723876953125
			],
			"min":[
				-8.853110313415527,
				-8.852709770202637,
				26.124021530151367
			],
			"type":"VEC3"
		},
		{
			"bufferView":10,
			"componentType":5126,
			"count":52093,
			"type":"VEC3"
		},
		{
			"bufferView":11,
			"componentType":5126,
			"count":52093,
			"type":"VEC2"
		},
		{
			"bufferView":12,
			"componentType":5126,
			"count":52093,
			"type":"VEC2"
		},
		{
			"bufferView":13,
			"componentType":5123,
			"count":303828,
			"type":"SCALAR"
		},
		{
			"bufferView":14,
			"componentType":5126,
			"count":208521,
			"max":[
				8.747010231018066,
				8.744500160217285,
				26.20990562438965
			],
			"min":[
				-8.743090629577637,
				-8.745590209960938,
				6.342200756072998
			],
			"type":"VEC3"
		},
		{
			"bufferView":15,
			"componentType":5126,
			"count":208521,
			"type":"VEC3"
		},
		{
			"bufferView":16,
			"componentType":5126,
			"count":208521,
			"type":"VEC2"
		},
		{
			"bufferView":17,
			"componentType":5126,
			"count":208521,
			"type":"VEC2"
		},
		{
			"bufferView":18,
			"componentType":5125,
			"count":1222932,
			"type":"SCALAR"
		},
		{
			"bufferView":19,
			"componentType":5126,
			"count":2466,
			"max":[
				16.955799102783203,
				16.956480026245117,
				6.572969436645508
			],
			"min":[
				-16.955799102783203,
				-16.95648765563965,
				5.835725784301758
			],
			"type":"VEC3"
		},
		{
			"bufferView":20,
			"componentType":5126,
			"count":2466,
			"type":"VEC3"
		},
		{
			"bufferView":21,
			"componentType":5126,
			"count":2466,
			"type":"VEC2"
		},
		{
			"bufferView":22,
			"componentType":5126,
			"count":2466,
			"type":"VEC2"
		},
		{
			"bufferView":23,
			"componentType":5123,
			"count":4188,
			"type":"SCALAR"
		},
		{
			"bufferView":24,
			"componentType":5126,
			"count":2191,
			"max":[
				12.307149887084961,
				2.4862890243530273,
				-0.08048223704099655
			],
			"min":[
				-12.246755599975586,
				-2.486287832260132,
				-35.94937515258789
			],
			"type":"VEC3"
		},
		{
			"bufferView":25,
			"componentType":5126,
			"count":2191,
			"type":"VEC3"
		},
		{
			"bufferView":26,
			"componentType":5126,
			"count":2191,
			"type":"VEC2"
		},
		{
			"bufferView":27,
			"componentType":5123,
			"count":9021,
			"type":"SCALAR"
		},
		{
			"bufferView":28,
			"componentType":5126,
			"count":1801,
			"max":[
				5.157455921173096,
				6.677026748657227,
				0.1236448585987091
			],
			"min":[
				-2.7750861644744873,
				-1.7895127534866333,
				-1.0552083253860474
			],
			"type":"VEC3"
		},
		{
			"bufferView":29,
			"componentType":5126,
			"count":1801,
			"type":"VEC3"
		},
		{
			"bufferView":30,
			"componentType":5126,
			"count":1801,
			"type":"VEC2"
		},
		{
			"bufferView":31,
			"componentType":5126,
			"count":1801,
			"type":"VEC2"
		},
		{
			"bufferView":32,
			"componentType":5126,
			"count":1801,
			"type":"VEC2"
		},
		{
			"bufferView":33,
			"componentType":5126,
			"count":1801,
			"type":"VEC2"
		},
		{
			"bufferView":34,
			"componentType":5126,
			"count":1801,
			"type":"VEC2"
		},
		{
			"bufferView":35,
			"componentType":5126,
			"count":1801,
			"type":"VEC2"
		},
		{
			"bufferView":36,
			"componentType":5126,
			"count":1801,
			"type":"VEC2"
		},
		{
			"bufferView":37,
			"componentType":5126,
			"count":1801,
			"type":"VEC2"
		},
		{
			"bufferView":38,
			"componentType":5123,
			"count":7209,
			"type":"SCALAR"
		},
		{
			"bufferView":39,
			"componentType":5126,
			"count":2005,
			"max":[
				6.851719856262207,
				3.650960683822632,
				2.8542774089146405e-05
			],
			"min":[
				-6.862420082092285,
				-3.669043779373169,
				-0.7603753805160522
			],
			"type":"VEC3"
		},
		{
			"bufferView":40,
			"componentType":5126,
			"count":2005,
			"type":"VEC3"
		},
		{
			"bufferView":41,
			"componentType":5126,
			"count":2005,
			"type":"VEC2"
		},
		{
			"bufferView":42,
			"componentType":5123,
			"count":8448,
			"type":"SCALAR"
		},
		{
			"bufferView":43,
			"componentType":5126,
			"count":1687,
			"max":[
				4.989811420440674,
				8.861030578613281,
				6.418581008911133
			],
			"min":[
				-7.616989612579346,
				-4.9872846603393555,
				-10.005023002624512
			],
			"type":"VEC3"
		},
		{
			"bufferView":44,
			"componentType":5126,
			"count":1687,
			"type":"VEC3"
		},
		{
			"bufferView":45,
			"componentType":5126,
			"count":1687,
			"type":"VEC2"
		},
		{
			"bufferView":46,
			"componentType":5123,
			"count":9522,
			"type":"SCALAR"
		},
		{
			"bufferView":47,
			"componentType":5126,
			"count":245,
			"max":[
				0.9520000219345093,
				2.3534998893737793,
				0.9520000219345093
			],
			"min":[
				-0.9520000219345093,
				1.4264999628067017,
				-0.9520000219345093
			],
			"type":"VEC3"
		},
		{
			"bufferView":48,
			"componentType":5126,
			"count":245,
			"type":"VEC3"
		},
		{
			"bufferView":49,
			"componentType":5126,
			"count":245,
			"type":"VEC2"
		},
		{
			"bufferView":50,
			"componentType":5123,
			"count":1284,
			"type":"SCALAR"
		}
	],
	"bufferViews":[
		{
			"buffer":0,
			"byteLength":45156,
			"byteOffset":0,
			"target":34962
		},
		{
			"buffer":0,
			"byteLength":45156,
			"byteOffset":45156,
			"target":34962
		},
		{
			"buffer":0,
			"byteLength":30104,
			"byteOffset":90312,
			"target":34962
		},
		{
			"buffer":0,
			"byteLength":31812,
			"byteOffset":120416,
			"target":34963
		},
		{
			"buffer":0,
			"byteLength":98040,
			"byteOffset":152228,
			"target":34962
		},
		{
			"buffer":0,
			"byteLength":98040,
			"byteOffset":250268,
			"target":34962
		},
		{
			"buffer":0,
			"byteLength":65360,
			"byteOffset":348308,
			"target":34962
		},
		{
			"buffer":0,
			"byteLength":65360,
			"byteOffset":413668,
			"target":34962
		},
		{
			"buffer":0,
			"byteLength":69120,
			"byteOffset":479028,
			"target":34963
		},
		{
			"buffer":0,
			"byteLength":625116,
			"byteOffset":548148,
			"target":34962
		},
		{
			"buffer":0,
			"byteLength":625116,
			"byteOffset":1173264,
			"target":34962
		},
		{
			"buffer":0,
			"byteLength":416744,
			"byteOffset":1798380,
			"target":34962
		},
		{
			"buffer":0,
			"byteLength":416744,
			"byteOffset":2215124,
			"target":34962
		},
		{
			"buffer":0,
			"byteLength":607656,
			"byteOffset":2631868,
			"target":34963
		},
		{
			"buffer":0,
			"byteLength":2502252,
			"byteOffset":3239524,
			"target":34962
		},
		{
			"buffer":0,
			"byteLength":2502252,
			"byteOffset":5741776,
			"target":34962
		},
		{
			"buffer":0,
			"byteLength":1668168,
			"byteOffset":8244028,
			"target":34962
		},
		{
			"buffer":0,
			"byteLength":1668168,
			"byteOffset":9912196,
			"target":34962
		},
		{
			"buffer":0,
			"byteLength":4891728,
			"byteOffset":11580364,
			"target":34963
		},
		{
			"buffer":0,
			"byteLength":29592,
			"byteOffset":16472092,
			"target":34962
		},
		{
			"buffer":0,
			"byteLength":29592,
			"byteOffset":16501684,
			"target":34962
		},
		{
			"buffer":0,
			"byteLength":19728,
			"byteOffset":16531276,
			"target":34962
		},
		{
			"buffer":0,
			"byteLength":19728,
			"byteOffset":16551004,
			"target":34962
		},
		{
			"buffer":0,
			"byteLength":8376,
			"byteOffset":16570732,
			"target":34963
		},
		{
			"buffer":0,
			"byteLength":26292,
			"byteOffset":16579108,
			"target":34962
		},
		{
			"buffer":0,
			"byteLength":26292,
			"byteOffset":16605400,
			"target":34962
		},
		{
			"buffer":0,
			"byteLength":17528,
			"byteOffset":16631692,
			"target":34962
		},
		{
			"buffer":0,
			"byteLength":18042,
			"byteOffset":16649220,
			"target":34963
		},
		{
			"buffer":0,
			"byteLength":21612,
			"byteOffset":16667264,
			"target":34962
		},
		{
			"buffer":0,
			"byteLength":21612,
			"byteOffset":16688876,
			"target":34962
		},
		{
			"buffer":0,
			"byteLength":14408,
			"byteOffset":16710488,
			"target":34962
		},
		{
			"buffer":0,
			"byteLength":14408,
			"byteOffset":16724896,
			"target":34962
		},
		{
			"buffer":0,
			"byteLength":14408,
			"byteOffset":16739304,
			"target":34962
		},
		{
			"buffer":0,
			"byteLength":14408,
			"byteOffset":16753712,
			"target":34962
		},
		{
			"buffer":0,
			"byteLength":14408,
			"byteOffset":16768120,
			"target":34962
		},
		{
			"buffer":0,
			"byteLength":14408,
			"byteOffset":16782528,
			"target":34962
		},
		{
			"buffer":0,
			"byteLength":14408,
			"byteOffset":16796936,
			"target":34962
		},
		{
			"buffer":0,
			"byteLength":14408,
			"byteOffset":16811344,
			"target":34962
		},
		{
			"buffer":0,
			"byteLength":14418,
			"byteOffset":16825752,
			"target":34963
		},
		{
			"buffer":0,
			"byteLength":24060,
			"byteOffset":16840172,
			"target":34962
		},
		{
			"buffer":0,
			"byteLength":24060,
			"byteOffset":16864232,
			"target":34962
		},
		{
			"buffer":0,
			"byteLength":16040,
			"byteOffset":16888292,
			"target":34962
		},
		{
			"buffer":0,
			"byteLength":16896,
			"byteOffset":16904332,
			"target":34963
		},
		{
			"buffer":0,
			"byteLength":20244,
			"byteOffset":16921228,
			"target":34962
		},
		{
			"buffer":0,
			"byteLength":20244,
			"byteOffset":16941472,
			"target":34962
		},
		{
			"buffer":0,
			"byteLength":13496,
			"byteOffset":16961716,
			"target":34962
		},
		{
			"buffer":0,
			"byteLength":19044,
			"byteOffset":16975212,
			"target":34963
		},
		{
			"buffer":0,
			"byteLength":2940,
			"byteOffset":16994256,
			"target":34962
		},
		{
			"buffer":0,
			"byteLength":2940,
			"byteOffset":16997196,
			"target":34962
		},
		{
			"buffer":0,
			"byteLength":1960,
			"byteOffset":17000136,
			"target":34962
		},
		{
			"buffer":0,
			"byteLength":2568,
			"byteOffset":17002096,
			"target":34963
		}
	],
	"buffers":[
		{
			"byteLength":17004664,
			"uri":"sus.bin"
		}
	]
}
