{
	"asset":{
		"generator":"Khronos glTF Blender I/O v5.0.21",
		"version":"2.0"
	},
	"scene":0,
	"scenes":[
		{
			"name":"Scene",
			"nodes":[
				1,
				2,
				3,
				4,
				5,
				6,
				7
			]
		}
	],
	"nodes":[
		{
			"mesh":0,
			"name":"Base-2",
			"scale":[
				1.007614016532898,
				1.0076141357421875,
				1.0076141357421875
			],
			"translation":[
				0,
				0,
				-27.200000762939453
			]
		},
		{
			"children":[
				0
			],
			"name":"stand",
			"rotation":[
				0.70710688829422,
				0,
				0,
				0.7071066498756409
			],
			"scale":[
				0.06730819493532181,
				0.06730816513299942,
				0.06730816513299942
			]
		},
		{
			"mesh":1,
			"name":"chandel",
			"rotation":[
				-0.7071069478988647,
				0,
				0,
				0.7071066498756409
			],
			"scale":[
				-0.028685249388217926,
				-0.028685245662927628,
				-0.028685245662927628
			],
			"translation":[
				0.03571314737200737,
				3.300971746444702,
				0.009308451786637306
			]
		},
		{
			"mesh":2,
			"name":"nuts",
			"rotation":[
				0.11667909473180771,
				0.6974137425422668,
				-0.6974138021469116,
				0.1166791319847107
			],
			"scale":[
				-0.1272609531879425,
				-0.1272609829902649,
				-0.12726084887981415
			],
			"translation":[
				-0.01812370866537094,
				3.6901443004608154,
				-0.3288992643356323
			]
		},
		{
			"mesh":3,
			"name":"bar",
			"rotation":[
				0.48721593618392944,
				-0.05220732092857361,
				0.6383336186408997,
				0.5936541557312012
			],
			"scale":[
				0.03639261797070503,
				0.036392610520124435,
				0.03639262914657593
			],
			"translation":[
				0.05212138965725899,
				3.5879411697387695,
				-0.2744883894920349
			]
		},
		{
			"mesh":4,
			"name":"balls",
			"rotation":[
				-0.474343866109848,
				0.36988288164138794,
				0.7524885535240173,
				0.26822710037231445
			],
			"scale":[
				-0.02123628370463848,
				-0.02123628742992878,
				-0.021236281841993332
			],
			"translation":[
				-0.12487457692623138,
				3.653717041015625,
				-0.24662436544895172
			]
		},
		{
			"mesh":5,
			"name":"Cake",
			"scale":[
				0.9357157349586487,
				0.9023179411888123,
				0.9357157349586487
			],
			"translation":[
				0,
				1.8900001049041748,
				0
			]
		},
		{
			"mesh":6,
			"name":"Cake_Rectangle",
			"scale":[
				0.849536120891571,
				0.849536120891571,
				0.849536120891571
			],
			"translation":[
				-0.0009237490594387054,
				1.0629512071609497,
				-0.0008959919214248657
			]
		}
	],
	"materials":[
		{
			"doubleSided":true,
			"name":"Strip Part",
			"pbrMetallicRoughness":{
				"baseColorFactor":[
					0.800000011920929,
					0.800000011920929,
					0.800000011920929,
					1
				],
				"roughnessFactor":0.5527864098548889
			}
		},
		{
			"doubleSided":true,
			"name":"Primary Part",
			"pbrMetallicRoughness":{
				"baseColorFactor":[
					0.800000011920929,
					0.800000011920929,
					0.800000011920929,
					1
				],
				"roughnessFactor":0.5527864098548889
			}
		},
		{
			"doubleSided":true,
			"name":"Add Part M",
			"pbrMetallicRoughness":{
				"baseColorFactor":[
					0.800000011920929,
					0.800000011920929,
					0.800000011920929,
					1
				],
				"roughnessFactor":0.5527864098548889
			}
		},
		{
			"doubleSided":true,
			"name":"plastic1",
			"pbrMetallicRoughness":{
				"baseColorFactor":[
					0.9054136872291565,
					0.9054136872291565,
					0.9054136872291565,
					1
				],
				"roughnessFactor":0.4763636589050293
			}
		},
		{
			"doubleSided":true,
			"name":"chandel",
			"pbrMetallicRoughness":{
				"baseColorFactor":[
					1,
					0.7438003420829773,
					0.06327110528945923,
					1
				],
				"roughnessFactor":0.5
			}
		},
		{
			"doubleSided":true,
			"name":"Default",
			"pbrMetallicRoughness":{
				"baseColorFactor":[
					0.39015689492225647,
					0.1246422529220581,
					0.05855438858270645,
					1
				],
				"metallicFactor":0.29357796907424927,
				"roughnessFactor":0.5527864098548889
			}
		},
		{
			"doubleSided":true,
			"name":"choco",
			"pbrMetallicRoughness":{
				"baseColorFactor":[
					0.8000000715255737,
					0.3774730861186981,
					0.1561039686203003,
					1
				],
				"metallicFactor":0.41044774651527405,
				"roughnessFactor":0.4000000059604645
			}
		},
		{
			"doubleSided":true,
			"name":"choco.001",
			"pbrMetallicRoughness":{
				"baseColorFactor":[
					0.8000000715255737,
					0.3774730861186981,
					0.1561039686203003,
					1
				],
				"metallicFactor":0.41044774651527405,
				"roughnessFactor":0.4000000059604645
			}
		},
		{
			"doubleSided":true,
			"name":"balls",
			"pbrMetallicRoughness":{
				"baseColorFactor":[
					0.8000000715255737,
					0.7753702402114868,
					0.4842037856578827,
					1
				],
				"metallicFactor":0.447761207818985,
				"roughnessFactor":0.4000000059604645
			}
		},
		{
			"doubleSided":true,
			"name":"Cake.002",
			"pbrMetallicRoughness":{
				"baseColorFactor":[
					0.798916220664978,
					0.3718603551387787,
					0.8000000715255737,
					1
				],
				"metallicFactor":0,
				"roughnessFactor":0.7134328484535217
			}
		},
		{
			"doubleSided":true,
			"name":"Cake",
			"pbrMetallicRoughness":{
				"baseColorFactor":[
					0.798916220664978,
					0.3718603551387787,
					0.8000000715255737,
					1
				],
				"metallicFactor":0,
				"roughnessFactor":0.7134328484535217
			}
		},
		{
			"doubleSided":true,
			"name":"Cake.001",
			"pbrMetallicRoughness":{
				"baseColorFactor":[
					0.798916220664978,
					0.3718603551387787,
					0.8000000715255737,
					1
				],
				"metallicFactor":0,
				"roughnessFactor":0.7134328484535217
			}
		}
	],
	"meshes":[
		{
			"name":"Mesh.004",
			"primitives":[
				{
					"attributes":{
						"POSITION":0,
						"NORMAL":1,
						"TEXCOORD_0":2,
						"TEXCOORD_1":3
					},
					"indices":4,
					"material":0
				},
				{
					"attributes":{
						"POSITION":5,
						"NORMAL":6,
						"TEXCOORD_0":7,
						"TEXCOORD_1":8
					},
					"indices":9,
					"material":1
				},
				{
					"attributes":{
						"POSITION":10,
						"NORMAL":11,
						"TEXCOORD_0":12,
						"TEXCOORD_1":13
					},
					"indices":14,
					"material":2
				},
				{
					"attributes":{
						"POSITION":15,
						"NORMAL":16,
						"TEXCOORD_0":17,
						"TEXCOORD_1":18
					},
					"indices":19,
					"material":3
				}
			]
		},
		{
			"name":"chandel",
			"primitives":[
				{
					"attributes":{
						"POSITION":20,
						"NORMAL":21,
						"TEXCOORD_0":22
					},
					"indices":23,
					"material":4
				}
			]
		},
		{
			"name":"Mesh.021",
			"primitives":[
				{
					"attributes":{
						"POSITION":24,
						"NORMAL":25,
						"TEXCOORD_0":26,
						"TEXCOORD_1":27,
						"TEXCOORD_2":28,
						"TEXCOORD_3":29,
						"TEXCOORD_4":30,
						"TEXCOORD_5":31,
						"TEXCOORD_6":32,
						"TEXCOORD_7":33
					},
					"indices":34,
					"material":5
				}
			]
		},
		{
			"name":"bar",
			"primitives":[
				{
					"attributes":{
						"POSITION":35,
						"NORMAL":36,
						"TEXCOORD_0":37
					},
					"indices":38,
					"material":6
				},
				{
					"attributes":{
						"POSITION":39,
						"NORMAL":40,
						"TEXCOORD_0":41
					},
					"indices":42,
					"material":7
				}
			]
		},
		{
			"name":"sphere-podium-01",
			"primitives":[
				{
					"attributes":{
						"POSITION":43,
						"NORMAL":44,
						"TEXCOORD_0":45
					},
					"indices":46,
					"material":8
				}
			]
		},
		{
			"name":"Cake.002",
			"primitives":[
				{
					"attributes":{
						"POSITION":47,
						"NORMAL":48,
						"TEXCOORD_0":49
					},
					"indices":50,
					"material":9
				},
				{
					"attributes":{
						"POSITION":51,
						"NORMAL":52,
						"TEXCOORD_0":53
					},
					"indices":54,
					"material":10
				},
				{
					"attributes":{
						"POSITION":55,
						"NORMAL":56,
						"TEXCOORD_0":57
					},
					"indices":58,
					"material":11
				}
			]
		},
		{
			"name":"Cube.005",
			"primitives":[
				{
					"attributes":{
						"POSITION":59,
						"NORMAL":60,
						"TEXCOORD_0":61
					},
					"indices":62
				}
			]
		}
	],
	"accessors":[
		{
			"bufferView":0,
			"componentType":5126,
			"count":8170,
			"max":[
				8.75037956237793,
				8.747909545898438,
				26.213991165161133
			],
			"min":[
				-8.746509552001953,
				-8.748979568481445,
				26.122730255126953
			],
			"type":"VEC3"
		},
		{
			"bufferView":1,
			"componentType":5126,
			"count":8170,
			"type":"VEC3"
		},
		{
			"bufferView":2,
			"componentType":5126,
			"count":8170,
			"type":"VEC2"
		},
		{
			"bufferView":3,
			"componentType":5126,
			"count":8170,
			"type":"VEC2"
		},
		{
			"bufferView":4,
			"componentType":5123,
			"count":34560,
			"type":"SCALAR"
		},
		{
			"bufferView":5,
			"componentType":5126,
			"count":52093,
			"max":[
				8.853130340576172,
				8.853519439697266,
				26.723876953125
			],
			"min":[
				-8.853110313415527,
				-8.852709770202637,
				26.124021530151367
			],
			"type":"VEC3"
		},
		{
			"bufferView":6,
			"componentType":5126,
			"count":52093,
			"type":"VEC3"
		},
		{
			"bufferView":7,
			"componentType":5126,
			"count":52093,
			"type":"VEC2"
		},
		{
			"bufferView":8,
			"componentType":5126,
			"count":52093,
			"type":"VEC2"
		},
		{
			"bufferView":9,
			"componentType":5123,
			"count":303828,
			"type":"SCALAR"
		},
		{
			"bufferView":10,
			"componentType":5126,
			"count":208521,
			"max":[
				8.747010231018066,
				8.744500160217285,
				26.20990562438965
			],
			"min":[
				-8.743090629577637,
				-8.745590209960938,
				6.342200756072998
			],
			"type":"VEC3"
		},
		{
			"bufferView":11,
			"componentType":5126,
			"count":208521,
			"type":"VEC3"
		},
		{
			"bufferView":12,
			"componentType":5126,
			"count":208521,
			"type":"VEC2"
		},
		{
			"bufferView":13,
			"componentType":5126,
			"count":208521,
			"type":"VEC2"
		},
		{
			"bufferView":14,
			"componentType":5125,
			"count":1222932,
			"type":"SCALAR"
		},
		{
			"bufferView":15,
			"componentType":5126,
			"count":2466,
			"max":[
				16.955799102783203,
				16.956480026245117,
				6.572969436645508
			],
			"min":[
				-16.955799102783203,
				-16.95648765563965,
				5.835725784301758
			],
			"type":"VEC3"
		},
		{
			"bufferView":16,
			"componentType":5126,
			"count":2466,
			"type":"VEC3"
		},
		{
			"bufferView":17,
			"componentType":5126,
			"count":2466,
			"type":"VEC2"
		},
		{
			"bufferView":18,
			"componentType":5126,
			"count":2466,
			"type":"VEC2"
		},
		{
			"bufferView":19,
			"componentType":5123,
			"count":4188,
			"type":"SCALAR"
		},
		{
			"bufferView":20,
			"componentType":5126,
			"count":2191,
			"max":[
				12.307149887084961,
				2.4862890243530273,
				-0.08048223704099655
			],
			"min":[
				-12.246755599975586,
				-2.486287832260132,
				-35.94937515258789
			],
			"type":"VEC3"
		},
		{
			"bufferView":21,
			"componentType":5126,
			"count":2191,
			"type":"VEC3"
		},
		{
			"bufferView":22,
			"componentType":5126,
			"count":2191,
			"type":"VEC2"
		},
		{
			"bufferView":23,
			"componentType":5123,
			"count":9021,
			"type":"SCALAR"
		},
		{
			"bufferView":24,
			"componentType":5126,
			"count":1801,
			"max":[
				5.157455921173096,
				6.677026748657227,
				0.1236448585987091
			],
			"min":[
				-2.7750861644744873,
				-1.7895127534866333,
				-1.0552083253860474
			],
			"type":"VEC3"
		},
		{
			"bufferView":25,
			"componentType":5126,
			"count":1801,
			"type":"VEC3"
		},
		{
			"bufferView":26,
			"componentType":5126,
			"count":1801,
			"type":"VEC2"
		},
		{
			"bufferView":27,
			"componentType":5126,
			"count":1801,
			"type":"VEC2"
		},
		{
			"bufferView":28,
			"componentType":5126,
			"count":1801,
			"type":"VEC2"
		},
		{
			"bufferView":29,
			"componentType":5126,
			"count":1801,
			"type":"VEC2"
		},
		{
			"bufferView":30,
			"componentType":5126,
			"count":1801,
			"type":"VEC2"
		},
		{
			"bufferView":31,
			"componentType":5126,
			"count":1801,
			"type":"VEC2"
		},
		{
			"bufferView":32,
			"componentType":5126,
			"count":1801,
			"type":"VEC2"
		},
		{
			"bufferView":33,
			"componentType":5126,
			"count":1801,
			"type":"VEC2"
		},
		{
			"bufferView":34,
			"componentType":5123,
			"count":7209,
			"type":"SCALAR"
		},
		{
			"bufferView":35,
			"componentType":5126,
			"count":2007,
			"max":[
				6.851713180541992,
				3.650960683822632,
				2.7534697437658906e-05
			],
			"min":[
				-6.8624267578125,
				-3.669043779373169,
				-0.7603762745857239
			],
			"type":"VEC3"
		},
		{
			"bufferView":36,
			"componentType":5126,
			"count":2007,
			"type":"VEC3"
		},
		{
			"bufferView":37,
			"componentType":5126,
			"count":2007,
			"type":"VEC2"
		},
		{
			"bufferView":38,
			"componentType":5123,
			"count":8448,
			"type":"SCALAR"
		},
		{
			"bufferView":39,
			"componentType":5126,
			"count":2076,
			"max":[
				12.14146900177002,
				11.090291023254395,
				14.591609954833984
			],
			"min":[
				6.59420108795166,
				-1.9088325500488281,
				1.9655084609985352
			],
			"type":"VEC3"
		},
		{
			"bufferView":40,
			"componentType":5126,
			"count":2076,
			"type":"VEC3"
		},
		{
			"bufferView":41,
			"componentType":5126,
			"count":2076,
			"type":"VEC2"
		},
		{
			"bufferView":42,
			"componentType":5123,
			"count":8448,
			"type":"SCALAR"
		},
		{
			"bufferView":43,
			"componentType":5126,
			"count":1687,
			"max":[
				4.989811420440674,
				8.861030578613281,
				6.418581008911133
			],
			"min":[
				-7.616989612579346,
				-4.9872846603393555,
				-10.005023002624512
			],
			"type":"VEC3"
		},
		{
			"bufferView":44,
			"componentType":5126,
			"count":1687,
			"type":"VEC3"
		},
		{
			"bufferView":45,
			"componentType":5126,
			"count":1687,
			"type":"VEC2"
		},
		{
			"bufferView":46,
			"componentType":5123,
			"count":9522,
			"type":"SCALAR"
		},
		{
			"bufferView":47,
			"componentType":5126,
			"count":4043,
			"max":[
				0.6345797777175903,
				1.9161149263381958,
				0.6366047859191895
			],
			"min":[
				-0.6395912170410156,
				1.2726587057113647,
				-0.6375662088394165
			],
			"type":"VEC3"
		},
		{
			"bufferView":48,
			"componentType":5126,
			"count":4043,
			"type":"VEC3"
		},
		{
			"bufferView":49,
			"componentType":5126,
			"count":4043,
			"type":"VEC2"
		},
		{
			"bufferView":50,
			"componentType":5123,
			"count":15906,
			"type":"SCALAR"
		},
		{
			"bufferView":51,
			"componentType":5126,
			"count":3853,
			"max":[
				1.0176072120666504,
				0.5138916373252869,
				1.0176072120666504
			],
			"min":[
				-1.0176072120666504,
				-0.5138916373252869,
				-1.0176072120666504
			],
			"type":"VEC3"
		},
		{
			"bufferView":52,
			"componentType":5126,
			"count":3853,
			"type":"VEC3"
		},
		{
			"bufferView":53,
			"componentType":5126,
			"count":3853,
			"type":"VEC2"
		},
		{
			"bufferView":54,
			"componentType":5123,
			"count":15906,
			"type":"SCALAR"
		},
		{
			"bufferView":55,
			"componentType":5126,
			"count":3932,
			"max":[
				0.8118726015090942,
				1.2983155250549316,
				0.8143048286437988
			],
			"min":[
				-0.8189306855201721,
				0.4747600257396698,
				-0.8164984583854675
			],
			"type":"VEC3"
		},
		{
			"bufferView":56,
			"componentType":5126,
			"count":3932,
			"type":"VEC3"
		},
		{
			"bufferView":57,
			"componentType":5126,
			"count":3932,
			"type":"VEC2"
		},
		{
			"bufferView":58,
			"componentType":5123,
			"count":15906,
			"type":"SCALAR"
		},
		{
			"bufferView":59,
			"componentType":5126,
			"count":735,
			"max":[
				1.1216989755630493,
				3.0110859870910645,
				1.1216663122177124
			],
			"min":[
				-1.119524359703064,
				0.4279381036758423,
				-1.1195570230484009
			],
			"type":"VEC3"
		},
		{
			"bufferView":60,
			"componentType":5126,
			"count":735,
			"type":"VEC3"
		},
		{
			"bufferView":61,
			"componentType":5126,
			"count":735,
			"type":"VEC2"
		},
		{
			"bufferView":62,
			"componentType":5123,
			"count":3852,
			"type":"SCALAR"
		}
	],
	"bufferViews":[
		{
			"buffer":0,
			"byteLength":98040,
			"byteOffset":0,
			"target":34962
		},
		{
			"buffer":0,
			"byteLength":98040,
			"byteOffset":98040,
			"target":34962
		},
		{
			"buffer":0,
			"byteLength":65360,
			"byteOffset":196080,
			"target":34962
		},
		{
			"buffer":0,
			"byteLength":65360,
			"byteOffset":261440,
			"target":34962
		},
		{
			"buffer":0,
			"byteLength":69120,
			"byteOffset":326800,
			"target":34963
		},
		{
			"buffer":0,
			"byteLength":625116,
			"byteOffset":395920,
			"target":34962
		},
		{
			"buffer":0,
			"byteLength":625116,
			"byteOffset":1021036,
			"target":34962
		},
		{
			"buffer":0,
			"byteLength":416744,
			"byteOffset":1646152,
			"target":34962
		},
		{
			"buffer":0,
			"byteLength":416744,
			"byteOffset":2062896,
			"target":34962
		},
		{
			"buffer":0,
			"byteLength":607656,
			"byteOffset":2479640,
			"target":34963
		},
		{
			"buffer":0,
			"byteLength":2502252,
			"byteOffset":3087296,
			"target":34962
		},
		{
			"buffer":0,
			"byteLength":2502252,
			"byteOffset":5589548,
			"target":34962
		},
		{
			"buffer":0,
			"byteLength":1668168,
			"byteOffset":8091800,
			"target":34962
		},
		{
			"buffer":0,
			"byteLength":1668168,
			"byteOffset":9759968,
			"target":34962
		},
		{
			"buffer":0,
			"byteLength":4891728,
			"byteOffset":11428136,
			"target":34963
		},
		{
			"buffer":0,
			"byteLength":29592,
			"byteOffset":16319864,
			"target":34962
		},
		{
			"buffer":0,
			"byteLength":29592,
			"byteOffset":16349456,
			"target":34962
		},
		{
			"buffer":0,
			"byteLength":19728,
			"byteOffset":16379048,
			"target":34962
		},
		{
			"buffer":0,
			"byteLength":19728,
			"byteOffset":16398776,
			"target":34962
		},
		{
			"buffer":0,
			"byteLength":8376,
			"byteOffset":16418504,
			"target":34963
		},
		{
			"buffer":0,
			"byteLength":26292,
			"byteOffset":16426880,
			"target":34962
		},
		{
			"buffer":0,
			"byteLength":26292,
			"byteOffset":16453172,
			"target":34962
		},
		{
			"buffer":0,
			"byteLength":17528,
			"byteOffset":16479464,
			"target":34962
		},
		{
			"buffer":0,
			"byteLength":18042,
			"byteOffset":16496992,
			"target":34963
		},
		{
			"buffer":0,
			"byteLength":21612,
			"byteOffset":16515036,
			"target":34962
		},
		{
			"buffer":0,
			"byteLength":21612,
			"byteOffset":16536648,
			"target":34962
		},
		{
			"buffer":0,
			"byteLength":14408,
			"byteOffset":16558260,
			"target":34962
		},
		{
			"buffer":0,
			"byteLength":14408,
			"byteOffset":16572668,
			"target":34962
		},
		{
			"buffer":0,
			"byteLength":14408,
			"byteOffset":16587076,
			"target":34962
		},
		{
			"buffer":0,
			"byteLength":14408,
			"byteOffset":16601484,
			"target":34962
		},
		{
			"buffer":0,
			"byteLength":14408,
			"byteOffset":16615892,
			"target":34962
		},
		{
			"buffer":0,
			"byteLength":14408,
			"byteOffset":16630300,
			"target":34962
		},
		{
			"buffer":0,
			"byteLength":14408,
			"byteOffset":16644708,
			"target":34962
		},
		{
			"buffer":0,
			"byteLength":14408,
			"byteOffset":16659116,
			"target":34962
		},
		{
			"buffer":0,
			"byteLength":14418,
			"byteOffset":16673524,
			"target":34963
		},
		{
			"buffer":0,
			"byteLength":24084,
			"byteOffset":16687944,
			"target":34962
		},
		{
			"buffer":0,
			"byteLength":24084,
			"byteOffset":16712028,
			"target":34962
		},
		{
			"buffer":0,
			"byteLength":16056,
			"byteOffset":16736112,
			"target":34962
		},
		{
			"buffer":0,
			"byteLength":16896,
			"byteOffset":16752168,
			"target":34963
		},
		{
			"buffer":0,
			"byteLength":24912,
			"byteOffset":16769064,
			"target":34962
		},
		{
			"buffer":0,
			"byteLength":24912,
			"byteOffset":16793976,
			"target":34962
		},
		{
			"buffer":0,
			"byteLength":16608,
			"byteOffset":16818888,
			"target":34962
		},
		{
			"buffer":0,
			"byteLength":16896,
			"byteOffset":16835496,
			"target":34963
		},
		{
			"buffer":0,
			"byteLength":20244,
			"byteOffset":16852392,
			"target":34962
		},
		{
			"buffer":0,
			"byteLength":20244,
			"byteOffset":16872636,
			"target":34962
		},
		{
			"buffer":0,
			"byteLength":13496,
			"byteOffset":16892880,
			"target":34962
		},
		{
			"buffer":0,
			"byteLength":19044,
			"byteOffset":16906376,
			"target":34963
		},
		{
			"buffer":0,
			"byteLength":48516,
			"byteOffset":16925420,
			"target":34962
		},
		{
			"buffer":0,
			"byteLength":48516,
			"byteOffset":16973936,
			"target":34962
		},
		{
			"buffer":0,
			"byteLength":32344,
			"byteOffset":17022452,
			"target":34962
		},
		{
			"buffer":0,
			"byteLength":31812,
			"byteOffset":17054796,
			"target":34963
		},
		{
			"buffer":0,
			"byteLength":46236,
			"byteOffset":17086608,
			"target":34962
		},
		{
			"buffer":0,
			"byteLength":46236,
			"byteOffset":17132844,
			"target":34962
		},
		{
			"buffer":0,
			"byteLength":30824,
			"byteOffset":17179080,
			"target":34962
		},
		{
			"buffer":0,
			"byteLength":31812,
			"byteOffset":17209904,
			"target":34963
		},
		{
			"buffer":0,
			"byteLength":47184,
			"byteOffset":17241716,
			"target":34962
		},
		{
			"buffer":0,
			"byteLength":47184,
			"byteOffset":17288900,
			"target":34962
		},
		{
			"buffer":0,
			"byteLength":31456,
			"byteOffset":17336084,
			"target":34962
		},
		{
			"buffer":0,
			"byteLength":31812,
			"byteOffset":17367540,
			"target":34963
		},
		{
			"buffer":0,
			"byteLength":8820,
			"byteOffset":17399352,
			"target":34962
		},
		{
			"buffer":0,
			"byteLength":8820,
			"byteOffset":17408172,
			"target":34962
		},
		{
			"buffer":0,
			"byteLength":5880,
			"byteOffset":17416992,
			"target":34962
		},
		{
			"buffer":0,
			"byteLength":7704,
			"byteOffset":17422872,
			"target":34963
		}
	],
	"buffers":[
		{
			"byteLength":17430576,
			"uri":"tier3.bin"
		}
	]
}
