{
	"asset":{
		"generator":"Khronos glTF Blender I/O v5.2.39",
		"version":"2.0"
	},
	"extensionsUsed":[
		"KHR_materials_transmission",
		"KHR_materials_specular"
	],
	"scene":0,
	"scenes":[
		{
			"name":"Scene",
			"nodes":[
				0,
				1,
				2,
				3,
				4,
				5,
				6,
				7,
				8,
				9,
				10,
				11,
				12,
				13,
				14,
				15,
				16,
				17,
				18,
				19,
				20,
				22
			]
		}
	],
	"nodes":[
		{
			"mesh":0,
			"name":"balls",
			"rotation":[
				-0.47434383630752563,
				0.3698829114437103,
				0.7524885535240173,
				0.26822710037231445
			],
			"scale":[
				0.034640468657016754,
				0.03464047610759735,
				0.034640468657016754
			],
			"translation":[
				-0.31702572107315063,
				3.195786952972412,
				-0.23420841991901398
			]
		},
		{
			"mesh":1,
			"name":"bar",
			"rotation":[
				0.48721593618392944,
				-0.05220732092857361,
				0.6383336186408997,
				0.5936541557312012
			],
			"scale":[
				0.03639261797070503,
				0.036392610520124435,
				0.03639262914657593
			],
			"translation":[
				0.22997239232063293,
				3.1742899417877197,
				-0.29905465245246887
			]
		},
		{
			"mesh":2,
			"name":"candle_0",
			"rotation":[
				0,
				-0.34002766013145447,
				0,
				0.9404155611991882
			],
			"scale":[
				0.04276752099394798,
				0.04276752099394798,
				0.04276752099394798
			],
			"translation":[
				4.7676265239715576e-05,
				3.061931610107422,
				3.965944051742554e-05
			]
		},
		{
			"mesh":3,
			"name":"candle_1",
			"rotation":[
				0,
				0.10148276388645172,
				0,
				0.9948374032974243
			],
			"scale":[
				0.05035274475812912,
				0.05035273730754852,
				0.05035274475812912
			],
			"translation":[
				-0.00013314932584762573,
				3.0619194507598877,
				0.00028569623827934265
			]
		},
		{
			"mesh":4,
			"name":"candle_2",
			"rotation":[
				0,
				-0.07018185406923294,
				0,
				0.9975342154502869
			],
			"scale":[
				0.04098726809024811,
				0.04098725691437721,
				0.04098726436495781
			],
			"translation":[
				0.010332554578781128,
				3.061934471130371,
				0.0022225994616746902
			]
		},
		{
			"mesh":5,
			"name":"candle_3",
			"rotation":[
				0,
				-0.0010228670435026288,
				0,
				1
			],
			"scale":[
				0.04508066177368164,
				0.04508066922426224,
				0.04508066922426224
			],
			"translation":[
				0.00011720508337020874,
				3.0619277954101562,
				1.4355406165122986e-05
			]
		},
		{
			"mesh":6,
			"name":"candle_4",
			"rotation":[
				0,
				-0.5797834992408752,
				0,
				0.8147705793380737
			],
			"scale":[
				0.04493667930364609,
				0.04493667930364609,
				0.04493667930364609
			],
			"translation":[
				0.011830341070890427,
				3.0619280338287354,
				0.03814823925495148
			]
		},
		{
			"mesh":7,
			"name":"candle_5",
			"scale":[
				0.04413324594497681,
				0.04413324594497681,
				0.04413324594497681
			],
			"translation":[
				0.00033762305974960327,
				3.06192946434021,
				0
			]
		},
		{
			"mesh":8,
			"name":"candle_6",
			"scale":[
				0.04561532288789749,
				0.04561532288789749,
				0.04561532288789749
			],
			"translation":[
				0.01980389654636383,
				3.061927080154419,
				0
			]
		},
		{
			"mesh":9,
			"name":"candle_7",
			"scale":[
				0.044847771525382996,
				0.044847771525382996,
				0.044847771525382996
			],
			"translation":[
				-0.005500584840774536,
				3.0619282722473145,
				0
			]
		},
		{
			"mesh":10,
			"name":"candle_8",
			"scale":[
				0.04528783634305,
				0.04528783634305,
				0.04528783634305
			],
			"translation":[
				-0.0005796849727630615,
				3.061927556991577,
				0
			]
		},
		{
			"mesh":11,
			"name":"candle_9",
			"scale":[
				0.04526224732398987,
				0.04526224732398987,
				0.04526224732398987
			],
			"translation":[
				0.0004345253109931946,
				3.061927556991577,
				0
			]
		},
		{
			"mesh":12,
			"name":"chandel",
			"rotation":[
				-0.7071069478988647,
				0,
				0,
				0.7071066498756409
			],
			"scale":[
				-0.028685249388217926,
				-0.028685245662927628,
				-0.028685245662927628
			],
			"translation":[
				-0.021297983825206757,
				3.0096259117126465,
				0.07486529648303986
			]
		},
		{
			"mesh":13,
			"name":"cherry",
			"scale":[
				0.038991790264844894,
				0.038991790264844894,
				0.038991790264844894
			],
			"translation":[
				-0.000730469822883606,
				3.060177803039551,
				-0.004801422357559204
			]
		},
		{
			"mesh":14,
			"name":"icing_rectangle",
			"scale":[
				1.076216697692871,
				1.076216697692871,
				1.076216697692871
			],
			"translation":[
				0.006766211241483688,
				-0.30980563163757324,
				-0.0034333346411585808
			]
		},
		{
			"mesh":15,
			"name":"icing_round"
		},
		{
			"mesh":16,
			"name":"nuts",
			"rotation":[
				0.11667909473180771,
				0.6974138021469116,
				-0.6974138021469116,
				0.11667913943529129
			],
			"scale":[
				-0.1268037110567093,
				-0.1268037110567093,
				-0.12680357694625854
			],
			"translation":[
				-0.06538430601358414,
				3.1220619678497314,
				-0.30404651165008545
			]
		},
		{
			"mesh":17,
			"name":"Rectangle1st_layer",
			"scale":[
				0.849536120891571,
				0.849536120891571,
				0.849536120891571
			],
			"translation":[
				-0.0009237490594387054,
				1.0629512071609497,
				-0.0008959919214248657
			]
		},
		{
			"mesh":18,
			"name":"Rectangle2nd_layer",
			"scale":[
				0.849536120891571,
				0.849536120891571,
				0.849536120891571
			],
			"translation":[
				-0.0009237490594387054,
				1.0629512071609497,
				-0.0008959919214248657
			]
		},
		{
			"mesh":19,
			"name":"round1st_layer",
			"scale":[
				0.9357157349586487,
				0.9023179411888123,
				0.9357157349586487
			],
			"translation":[
				0,
				1.8900001049041748,
				0
			]
		},
		{
			"mesh":20,
			"name":"round2nd_layer",
			"scale":[
				0.9357157349586487,
				0.9023179411888123,
				0.9357157349586487
			],
			"translation":[
				0,
				1.8900001049041748,
				0
			]
		},
		{
			"mesh":21,
			"name":"Base-2",
			"scale":[
				1.007614016532898,
				1.0076141357421875,
				1.0076141357421875
			],
			"translation":[
				0,
				0,
				-27.200000762939453
			]
		},
		{
			"children":[
				21
			],
			"name":"stand",
			"rotation":[
				0.70710688829422,
				0,
				0,
				0.7071066498756409
			],
			"scale":[
				0.06730819493532181,
				0.06730816513299942,
				0.06730816513299942
			]
		}
	],
	"materials":[
		{
			"doubleSided":true,
			"name":"balls",
			"pbrMetallicRoughness":{
				"baseColorFactor":[
					0.8000000715255737,
					0.7753702402114868,
					0.4842037856578827,
					1
				],
				"metallicFactor":0.447761207818985,
				"roughnessFactor":0.4000000059604645
			}
		},
		{
			"doubleSided":true,
			"name":"choco",
			"pbrMetallicRoughness":{
				"baseColorFactor":[
					0.8000000715255737,
					0.3774730861186981,
					0.1561039686203003,
					1
				],
				"metallicFactor":0.41044774651527405,
				"roughnessFactor":0.4000000059604645
			}
		},
		{
			"doubleSided":true,
			"name":"choco.001",
			"pbrMetallicRoughness":{
				"baseColorFactor":[
					0.8000000715255737,
					0.3774730861186981,
					0.1561039686203003,
					1
				],
				"metallicFactor":0.41044774651527405,
				"roughnessFactor":0.4000000059604645
			}
		},
		{
			"doubleSided":true,
			"name":"Candle_White_Default",
			"pbrMetallicRoughness":{
				"metallicFactor":0,
				"roughnessFactor":0.3499999940395355
			}
		},
		{
			"doubleSided":true,
			"name":"chandel",
			"pbrMetallicRoughness":{
				"baseColorFactor":[
					1,
					0.7438003420829773,
					0.06327110528945923,
					1
				],
				"roughnessFactor":0.5
			}
		},
		{
			"doubleSided":true,
			"extensions":{
				"KHR_materials_transmission":{
					"transmissionFactor":1
				},
				"KHR_materials_specular":{
					"specularColorFactor":[
						1.3678666353225708,
						1.3678666353225708,
						1.3678666353225708
					]
				}
			},
			"name":"cherry",
			"pbrMetallicRoughness":{
				"baseColorTexture":{
					"index":0
				},
				"metallicFactor":0,
				"roughnessFactor":0.7902382612228394
			}
		},
		{
			"doubleSided":true,
			"name":"icing",
			"pbrMetallicRoughness":{
				"baseColorFactor":[
					0.14499999582767487,
					0.054999999701976776,
					0.029999999329447746,
					1
				],
				"metallicFactor":0,
				"roughnessFactor":0.2800000011920929
			}
		},
		{
			"doubleSided":true,
			"name":"Default",
			"pbrMetallicRoughness":{
				"baseColorFactor":[
					0.39015689492225647,
					0.1246422529220581,
					0.05855438858270645,
					1
				],
				"metallicFactor":0.29357796907424927,
				"roughnessFactor":0.5527864098548889
			}
		},
		{
			"doubleSided":true,
			"name":"Cake",
			"pbrMetallicRoughness":{
				"baseColorFactor":[
					0.798916220664978,
					0.3718603551387787,
					0.8000000715255737,
					1
				],
				"metallicFactor":0,
				"roughnessFactor":0.7134328484535217
			}
		},
		{
			"doubleSided":true,
			"name":"Cake.001",
			"pbrMetallicRoughness":{
				"baseColorFactor":[
					0.798916220664978,
					0.3718603551387787,
					0.8000000715255737,
					1
				],
				"metallicFactor":0,
				"roughnessFactor":0.7134328484535217
			}
		},
		{
			"doubleSided":true,
			"name":"Strip Part",
			"pbrMetallicRoughness":{
				"baseColorFactor":[
					0.800000011920929,
					0.800000011920929,
					0.800000011920929,
					1
				],
				"roughnessFactor":0.5527864098548889
			}
		},
		{
			"doubleSided":true,
			"name":"Primary Part",
			"pbrMetallicRoughness":{
				"baseColorFactor":[
					0.800000011920929,
					0.800000011920929,
					0.800000011920929,
					1
				],
				"roughnessFactor":0.5527864098548889
			}
		},
		{
			"doubleSided":true,
			"name":"Add Part M",
			"pbrMetallicRoughness":{
				"baseColorFactor":[
					0.800000011920929,
					0.800000011920929,
					0.800000011920929,
					1
				],
				"roughnessFactor":0.5527864098548889
			}
		},
		{
			"doubleSided":true,
			"name":"plastic1",
			"pbrMetallicRoughness":{
				"baseColorFactor":[
					0.9054136872291565,
					0.9054136872291565,
					0.9054136872291565,
					1
				],
				"roughnessFactor":0.4763636589050293
			}
		}
	],
	"meshes":[
		{
			"name":"sphere-podium-01",
			"primitives":[
				{
					"attributes":{
						"POSITION":0,
						"NORMAL":1,
						"TEXCOORD_0":2
					},
					"indices":3,
					"material":0
				}
			]
		},
		{
			"name":"bar",
			"primitives":[
				{
					"attributes":{
						"POSITION":4,
						"NORMAL":5,
						"TEXCOORD_0":6
					},
					"indices":7,
					"material":1
				},
				{
					"attributes":{
						"POSITION":8,
						"NORMAL":9,
						"TEXCOORD_0":10
					},
					"indices":11,
					"material":2
				}
			]
		},
		{
			"name":"20820_Number_0_v1",
			"primitives":[
				{
					"attributes":{
						"POSITION":12,
						"NORMAL":13,
						"TEXCOORD_0":14
					},
					"indices":15,
					"material":3
				}
			]
		},
		{
			"name":"20811_Number_1_v1",
			"primitives":[
				{
					"attributes":{
						"POSITION":16,
						"NORMAL":17,
						"TEXCOORD_0":18
					},
					"indices":19,
					"material":3
				}
			]
		},
		{
			"name":"20812_Number_2_v1",
			"primitives":[
				{
					"attributes":{
						"POSITION":20,
						"NORMAL":21,
						"TEXCOORD_0":22
					},
					"indices":23,
					"material":3
				}
			]
		},
		{
			"name":"20813_Number_3_v1",
			"primitives":[
				{
					"attributes":{
						"POSITION":24,
						"NORMAL":25,
						"TEXCOORD_0":26
					},
					"indices":27,
					"material":3
				}
			]
		},
		{
			"name":"20814_Number_4_v1",
			"primitives":[
				{
					"attributes":{
						"POSITION":28,
						"NORMAL":29,
						"TEXCOORD_0":30
					},
					"indices":31,
					"material":3
				}
			]
		},
		{
			"name":"20815_Number_5_v1",
			"primitives":[
				{
					"attributes":{
						"POSITION":32,
						"NORMAL":33,
						"TEXCOORD_0":34
					},
					"indices":35,
					"material":3
				}
			]
		},
		{
			"name":"20816_Number_6_v1",
			"primitives":[
				{
					"attributes":{
						"POSITION":36,
						"NORMAL":37,
						"TEXCOORD_0":38
					},
					"indices":39,
					"material":3
				}
			]
		},
		{
			"name":"20817_Number_7_v1",
			"primitives":[
				{
					"attributes":{
						"POSITION":40,
						"NORMAL":41,
						"TEXCOORD_0":42
					},
					"indices":43,
					"material":3
				}
			]
		},
		{
			"name":"20818_Number_8_v1",
			"primitives":[
				{
					"attributes":{
						"POSITION":44,
						"NORMAL":45,
						"TEXCOORD_0":46
					},
					"indices":47,
					"material":3
				}
			]
		},
		{
			"name":"20819_Number_9_v1",
			"primitives":[
				{
					"attributes":{
						"POSITION":48,
						"NORMAL":49,
						"TEXCOORD_0":50
					},
					"indices":51,
					"material":3
				}
			]
		},
		{
			"name":"chandel",
			"primitives":[
				{
					"attributes":{
						"POSITION":52,
						"NORMAL":53,
						"TEXCOORD_0":54
					},
					"indices":55,
					"material":4
				}
			]
		},
		{
			"name":"10174_Cherry_v01_l3",
			"primitives":[
				{
					"attributes":{
						"POSITION":56,
						"NORMAL":57,
						"TEXCOORD_0":58
					},
					"indices":59,
					"material":5
				}
			]
		},
		{
			"name":"icing_rectangle",
			"primitives":[
				{
					"attributes":{
						"POSITION":60,
						"NORMAL":61
					},
					"indices":62,
					"material":6
				}
			]
		},
		{
			"name":"icing_round",
			"primitives":[
				{
					"attributes":{
						"POSITION":63,
						"NORMAL":64
					},
					"indices":62,
					"material":6
				}
			]
		},
		{
			"name":"Mesh.021",
			"primitives":[
				{
					"attributes":{
						"POSITION":65,
						"NORMAL":66,
						"TEXCOORD_0":67,
						"TEXCOORD_1":68,
						"TEXCOORD_2":69,
						"TEXCOORD_3":70,
						"TEXCOORD_4":71,
						"TEXCOORD_5":72,
						"TEXCOORD_6":73,
						"TEXCOORD_7":74
					},
					"indices":75,
					"material":7
				}
			]
		},
		{
			"name":"Cube.002",
			"primitives":[
				{
					"attributes":{
						"POSITION":76,
						"NORMAL":77,
						"TEXCOORD_0":78
					},
					"indices":79
				}
			]
		},
		{
			"name":"Cube.001",
			"primitives":[
				{
					"attributes":{
						"POSITION":80,
						"NORMAL":81,
						"TEXCOORD_0":82
					},
					"indices":83
				}
			]
		},
		{
			"name":"Cake.003",
			"primitives":[
				{
					"attributes":{
						"POSITION":84,
						"NORMAL":85,
						"TEXCOORD_0":86
					},
					"indices":87,
					"material":8
				}
			]
		},
		{
			"name":"Cake.002",
			"primitives":[
				{
					"attributes":{
						"POSITION":88,
						"NORMAL":89,
						"TEXCOORD_0":90
					},
					"indices":91,
					"material":9
				}
			]
		},
		{
			"name":"Mesh.004",
			"primitives":[
				{
					"attributes":{
						"POSITION":92,
						"NORMAL":93,
						"TEXCOORD_0":94,
						"TEXCOORD_1":95
					},
					"indices":96,
					"material":10
				},
				{
					"attributes":{
						"POSITION":97,
						"NORMAL":98,
						"TEXCOORD_0":99,
						"TEXCOORD_1":100
					},
					"indices":101,
					"material":11
				},
				{
					"attributes":{
						"POSITION":102,
						"NORMAL":103,
						"TEXCOORD_0":104,
						"TEXCOORD_1":105
					},
					"indices":106,
					"material":12
				},
				{
					"attributes":{
						"POSITION":107,
						"NORMAL":108,
						"TEXCOORD_0":109,
						"TEXCOORD_1":110
					},
					"indices":111,
					"material":13
				}
			]
		}
	],
	"textures":[
		{
			"sampler":0,
			"source":0
		}
	],
	"images":[
		{
			"mimeType":"image/jpeg",
			"name":"Cherry",
			"uri":"Cherry.jpg"
		}
	],
	"accessors":[
		{
			"bufferView":0,
			"componentType":5126,
			"count":1687,
			"max":[
				4.989811420440674,
				8.861030578613281,
				6.418581008911133
			],
			"min":[
				-7.616989612579346,
				-4.9872846603393555,
				-10.005023002624512
			],
			"type":"VEC3"
		},
		{
			"bufferView":1,
			"componentType":5126,
			"count":1687,
			"type":"VEC3"
		},
		{
			"bufferView":2,
			"componentType":5126,
			"count":1687,
			"type":"VEC2"
		},
		{
			"bufferView":3,
			"componentType":5123,
			"count":9522,
			"type":"SCALAR"
		},
		{
			"bufferView":4,
			"componentType":5126,
			"count":2007,
			"max":[
				6.851713180541992,
				3.650960683822632,
				2.7534697437658906e-05
			],
			"min":[
				-6.8624267578125,
				-3.669043779373169,
				-0.7603762745857239
			],
			"type":"VEC3"
		},
		{
			"bufferView":5,
			"componentType":5126,
			"count":2007,
			"type":"VEC3"
		},
		{
			"bufferView":6,
			"componentType":5126,
			"count":2007,
			"type":"VEC2"
		},
		{
			"bufferView":7,
			"componentType":5123,
			"count":8448,
			"type":"SCALAR"
		},
		{
			"bufferView":8,
			"componentType":5126,
			"count":2076,
			"max":[
				12.14146900177002,
				11.090291023254395,
				14.591609954833984
			],
			"min":[
				6.59420108795166,
				-1.9088325500488281,
				1.9655084609985352
			],
			"type":"VEC3"
		},
		{
			"bufferView":9,
			"componentType":5126,
			"count":2076,
			"type":"VEC3"
		},
		{
			"bufferView":10,
			"componentType":5126,
			"count":2076,
			"type":"VEC2"
		},
		{
			"bufferView":11,
			"componentType":5123,
			"count":8448,
			"type":"SCALAR"
		},
		{
			"bufferView":12,
			"componentType":5126,
			"count":7426,
			"max":[
				4.255499839782715,
				13.07979965209961,
				0.9739000201225281
			],
			"min":[
				-4.258399963378906,
				0.0015999999595806003,
				-0.9739000201225281
			],
			"type":"VEC3"
		},
		{
			"bufferView":13,
			"componentType":5126,
			"count":7426,
			"type":"VEC3"
		},
		{
			"bufferView":14,
			"componentType":5126,
			"count":7426,
			"type":"VEC2"
		},
		{
			"bufferView":15,
			"componentType":5123,
			"count":44544,
			"type":"SCALAR"
		},
		{
			"bufferView":16,
			"componentType":5126,
			"count":6020,
			"max":[
				3.598599910736084,
				12.98330020904541,
				0.996999979019165
			],
			"min":[
				-3.592900037765503,
				0.0015999999595806003,
				-0.996999979019165
			],
			"type":"VEC3"
		},
		{
			"bufferView":17,
			"componentType":5126,
			"count":6020,
			"type":"VEC3"
		},
		{
			"bufferView":18,
			"componentType":5126,
			"count":6020,
			"type":"VEC2"
		},
		{
			"bufferView":19,
			"componentType":5123,
			"count":36096,
			"type":"SCALAR"
		},
		{
			"bufferView":20,
			"componentType":5126,
			"count":6244,
			"max":[
				3.4879000186920166,
				12.881999969482422,
				0.9958999752998352
			],
			"min":[
				-4.000800132751465,
				0.0015999999595806003,
				-0.9958999752998352
			],
			"type":"VEC3"
		},
		{
			"bufferView":21,
			"componentType":5126,
			"count":6244,
			"type":"VEC3"
		},
		{
			"bufferView":22,
			"componentType":5126,
			"count":6244,
			"type":"VEC2"
		},
		{
			"bufferView":23,
			"componentType":5123,
			"count":37440,
			"type":"SCALAR"
		},
		{
			"bufferView":24,
			"componentType":5126,
			"count":7140,
			"max":[
				3.5824999809265137,
				13.269499778747559,
				0.9984999895095825
			],
			"min":[
				-3.5876998901367188,
				0.0015999999595806003,
				-0.9984999895095825
			],
			"type":"VEC3"
		},
		{
			"bufferView":25,
			"componentType":5126,
			"count":7140,
			"type":"VEC3"
		},
		{
			"bufferView":26,
			"componentType":5126,
			"count":7140,
			"type":"VEC2"
		},
		{
			"bufferView":27,
			"componentType":5123,
			"count":42816,
			"type":"SCALAR"
		},
		{
			"bufferView":28,
			"componentType":5126,
			"count":9026,
			"max":[
				2.9349000453948975,
				13.014599800109863,
				1.0009000301361084
			],
			"min":[
				-4.735300064086914,
				0.0015999999595806003,
				-1.0009000301361084
			],
			"type":"VEC3"
		},
		{
			"bufferView":29,
			"componentType":5126,
			"count":9026,
			"type":"VEC3"
		},
		{
			"bufferView":30,
			"componentType":5126,
			"count":9026,
			"type":"VEC2"
		},
		{
			"bufferView":31,
			"componentType":5123,
			"count":54144,
			"type":"SCALAR"
		},
		{
			"bufferView":32,
			"componentType":5126,
			"count":7556,
			"max":[
				3.6456000804901123,
				13.251500129699707,
				0.9912999868392944
			],
			"min":[
				-3.660900115966797,
				0.0015999999595806003,
				-0.9912999868392944
			],
			"type":"VEC3"
		},
		{
			"bufferView":33,
			"componentType":5126,
			"count":7556,
			"type":"VEC3"
		},
		{
			"bufferView":34,
			"componentType":5126,
			"count":7556,
			"type":"VEC2"
		},
		{
			"bufferView":35,
			"componentType":5123,
			"count":45312,
			"type":"SCALAR"
		},
		{
			"bufferView":36,
			"componentType":5126,
			"count":5826,
			"max":[
				3.468600034713745,
				12.821000099182129,
				0.9891999959945679
			],
			"min":[
				-4.336900234222412,
				0.0015999999595806003,
				-0.9891999959945679
			],
			"type":"VEC3"
		},
		{
			"bufferView":37,
			"componentType":5126,
			"count":5826,
			"type":"VEC3"
		},
		{
			"bufferView":38,
			"componentType":5126,
			"count":5826,
			"type":"VEC2"
		},
		{
			"bufferView":39,
			"componentType":5123,
			"count":34944,
			"type":"SCALAR"
		},
		{
			"bufferView":40,
			"componentType":5126,
			"count":4708,
			"max":[
				4.135300159454346,
				13.040399551391602,
				1.00409996509552
			],
			"min":[
				-3.890000104904175,
				0.0015999999595806003,
				-1.00409996509552
			],
			"type":"VEC3"
		},
		{
			"bufferView":41,
			"componentType":5126,
			"count":4708,
			"type":"VEC3"
		},
		{
			"bufferView":42,
			"componentType":5126,
			"count":4708,
			"type":"VEC2"
		},
		{
			"bufferView":43,
			"componentType":5123,
			"count":28224,
			"type":"SCALAR"
		},
		{
			"bufferView":44,
			"componentType":5126,
			"count":7536,
			"max":[
				3.8194000720977783,
				12.913700103759766,
				0.9919000267982483
			],
			"min":[
				-3.793800115585327,
				0.0015999999595806003,
				-0.9919000267982483
			],
			"type":"VEC3"
		},
		{
			"bufferView":45,
			"componentType":5126,
			"count":7536,
			"type":"VEC3"
		},
		{
			"bufferView":46,
			"componentType":5126,
			"count":7536,
			"type":"VEC2"
		},
		{
			"bufferView":47,
			"componentType":5123,
			"count":45216,
			"type":"SCALAR"
		},
		{
			"bufferView":48,
			"componentType":5126,
			"count":7234,
			"max":[
				3.8592000007629395,
				12.920999526977539,
				0.9919000267982483
			],
			"min":[
				-3.8784000873565674,
				0.0015999999595806003,
				-0.9919000267982483
			],
			"type":"VEC3"
		},
		{
			"bufferView":49,
			"componentType":5126,
			"count":7234,
			"type":"VEC3"
		},
		{
			"bufferView":50,
			"componentType":5126,
			"count":7234,
			"type":"VEC2"
		},
		{
			"bufferView":51,
			"componentType":5123,
			"count":43392,
			"type":"SCALAR"
		},
		{
			"bufferView":52,
			"componentType":5126,
			"count":2191,
			"max":[
				12.307149887084961,
				2.4862890243530273,
				-0.08048223704099655
			],
			"min":[
				-12.246755599975586,
				-2.486287832260132,
				-35.94937515258789
			],
			"type":"VEC3"
		},
		{
			"bufferView":53,
			"componentType":5126,
			"count":2191,
			"type":"VEC3"
		},
		{
			"bufferView":54,
			"componentType":5126,
			"count":2191,
			"type":"VEC2"
		},
		{
			"bufferView":55,
			"componentType":5123,
			"count":9021,
			"type":"SCALAR"
		},
		{
			"bufferView":56,
			"componentType":5126,
			"count":3830,
			"max":[
				2.7065000534057617,
				10.72029972076416,
				2.668299913406372
			],
			"min":[
				-2.679800033569336,
				0.0333000011742115,
				-2.492799997329712
			],
			"type":"VEC3"
		},
		{
			"bufferView":57,
			"componentType":5126,
			"count":3830,
			"type":"VEC3"
		},
		{
			"bufferView":58,
			"componentType":5126,
			"count":3830,
			"type":"VEC2"
		},
		{
			"bufferView":59,
			"componentType":5123,
			"count":22176,
			"type":"SCALAR"
		},
		{
			"bufferView":60,
			"componentType":5126,
			"count":192,
			"max":[
				0.7609925270080566,
				3.062299966812134,
				0.7609925270080566
			],
			"min":[
				-0.7609925270080566,
				2.6326661109924316,
				-0.7609925270080566
			],
			"type":"VEC3"
		},
		{
			"bufferView":61,
			"componentType":5126,
			"count":192,
			"type":"VEC3"
		},
		{
			"bufferView":62,
			"componentType":5123,
			"count":576,
			"type":"SCALAR"
		},
		{
			"bufferView":63,
			"componentType":5126,
			"count":192,
			"max":[
				0.7749999761581421,
				3.061500072479248,
				0.7749999761581421
			],
			"min":[
				-0.7749999761581421,
				2.7054202556610107,
				-0.7749999761581421
			],
			"type":"VEC3"
		},
		{
			"bufferView":64,
			"componentType":5126,
			"count":192,
			"type":"VEC3"
		},
		{
			"bufferView":65,
			"componentType":5126,
			"count":1801,
			"max":[
				5.157455921173096,
				6.677026748657227,
				0.1236448585987091
			],
			"min":[
				-2.7750861644744873,
				-1.7895127534866333,
				-1.0552083253860474
			],
			"type":"VEC3"
		},
		{
			"bufferView":66,
			"componentType":5126,
			"count":1801,
			"type":"VEC3"
		},
		{
			"bufferView":67,
			"componentType":5126,
			"count":1801,
			"type":"VEC2"
		},
		{
			"bufferView":68,
			"componentType":5126,
			"count":1801,
			"type":"VEC2"
		},
		{
			"bufferView":69,
			"componentType":5126,
			"count":1801,
			"type":"VEC2"
		},
		{
			"bufferView":70,
			"componentType":5126,
			"count":1801,
			"type":"VEC2"
		},
		{
			"bufferView":71,
			"componentType":5126,
			"count":1801,
			"type":"VEC2"
		},
		{
			"bufferView":72,
			"componentType":5126,
			"count":1801,
			"type":"VEC2"
		},
		{
			"bufferView":73,
			"componentType":5126,
			"count":1801,
			"type":"VEC2"
		},
		{
			"bufferView":74,
			"componentType":5126,
			"count":1801,
			"type":"VEC2"
		},
		{
			"bufferView":75,
			"componentType":5123,
			"count":7209,
			"type":"SCALAR"
		},
		{
			"bufferView":76,
			"componentType":5126,
			"count":245,
			"max":[
				1.1216989755630493,
				1.519121766090393,
				1.1216663122177124
			],
			"min":[
				-1.119524359703064,
				0.4279381036758423,
				-1.1195570230484009
			],
			"type":"VEC3"
		},
		{
			"bufferView":77,
			"componentType":5126,
			"count":245,
			"type":"VEC3"
		},
		{
			"bufferView":78,
			"componentType":5126,
			"count":245,
			"type":"VEC2"
		},
		{
			"bufferView":79,
			"componentType":5123,
			"count":1284,
			"type":"SCALAR"
		},
		{
			"bufferView":80,
			"componentType":5126,
			"count":245,
			"max":[
				0.9520000219345093,
				2.3534998893737793,
				0.9520000219345093
			],
			"min":[
				-0.9520000219345093,
				1.4264999628067017,
				-0.9520000219345093
			],
			"type":"VEC3"
		},
		{
			"bufferView":81,
			"componentType":5126,
			"count":245,
			"type":"VEC3"
		},
		{
			"bufferView":82,
			"componentType":5126,
			"count":245,
			"type":"VEC2"
		},
		{
			"bufferView":83,
			"componentType":5123,
			"count":1284,
			"type":"SCALAR"
		},
		{
			"bufferView":84,
			"componentType":5126,
			"count":3853,
			"max":[
				1.0176072120666504,
				0.5138916373252869,
				1.0176072120666504
			],
			"min":[
				-1.0176072120666504,
				-0.5138916373252869,
				-1.0176072120666504
			],
			"type":"VEC3"
		},
		{
			"bufferView":85,
			"componentType":5126,
			"count":3853,
			"type":"VEC3"
		},
		{
			"bufferView":86,
			"componentType":5126,
			"count":3853,
			"type":"VEC2"
		},
		{
			"bufferView":87,
			"componentType":5123,
			"count":15906,
			"type":"SCALAR"
		},
		{
			"bufferView":88,
			"componentType":5126,
			"count":3932,
			"max":[
				0.8118726015090942,
				1.2983155250549316,
				0.8143048286437988
			],
			"min":[
				-0.8189306855201721,
				0.4747600257396698,
				-0.8164984583854675
			],
			"type":"VEC3"
		},
		{
			"bufferView":89,
			"componentType":5126,
			"count":3932,
			"type":"VEC3"
		},
		{
			"bufferView":90,
			"componentType":5126,
			"count":3932,
			"type":"VEC2"
		},
		{
			"bufferView":91,
			"componentType":5123,
			"count":15906,
			"type":"SCALAR"
		},
		{
			"bufferView":92,
			"componentType":5126,
			"count":8170,
			"max":[
				8.75037956237793,
				8.747909545898438,
				26.213991165161133
			],
			"min":[
				-8.746509552001953,
				-8.748979568481445,
				26.122730255126953
			],
			"type":"VEC3"
		},
		{
			"bufferView":93,
			"componentType":5126,
			"count":8170,
			"type":"VEC3"
		},
		{
			"bufferView":94,
			"componentType":5126,
			"count":8170,
			"type":"VEC2"
		},
		{
			"bufferView":95,
			"componentType":5126,
			"count":8170,
			"type":"VEC2"
		},
		{
			"bufferView":96,
			"componentType":5123,
			"count":34560,
			"type":"SCALAR"
		},
		{
			"bufferView":97,
			"componentType":5126,
			"count":52093,
			"max":[
				8.853130340576172,
				8.853519439697266,
				26.723876953125
			],
			"min":[
				-8.853110313415527,
				-8.852709770202637,
				26.124021530151367
			],
			"type":"VEC3"
		},
		{
			"bufferView":98,
			"componentType":5126,
			"count":52093,
			"type":"VEC3"
		},
		{
			"bufferView":99,
			"componentType":5126,
			"count":52093,
			"type":"VEC2"
		},
		{
			"bufferView":100,
			"componentType":5126,
			"count":52093,
			"type":"VEC2"
		},
		{
			"bufferView":101,
			"componentType":5123,
			"count":303828,
			"type":"SCALAR"
		},
		{
			"bufferView":102,
			"componentType":5126,
			"count":208521,
			"max":[
				8.747010231018066,
				8.744500160217285,
				26.20990562438965
			],
			"min":[
				-8.743090629577637,
				-8.745590209960938,
				6.342200756072998
			],
			"type":"VEC3"
		},
		{
			"bufferView":103,
			"componentType":5126,
			"count":208521,
			"type":"VEC3"
		},
		{
			"bufferView":104,
			"componentType":5126,
			"count":208521,
			"type":"VEC2"
		},
		{
			"bufferView":105,
			"componentType":5126,
			"count":208521,
			"type":"VEC2"
		},
		{
			"bufferView":106,
			"componentType":5125,
			"count":1222932,
			"type":"SCALAR"
		},
		{
			"bufferView":107,
			"componentType":5126,
			"count":2466,
			"max":[
				16.955799102783203,
				16.956480026245117,
				6.572969436645508
			],
			"min":[
				-16.955799102783203,
				-16.95648765563965,
				5.835725784301758
			],
			"type":"VEC3"
		},
		{
			"bufferView":108,
			"componentType":5126,
			"count":2466,
			"type":"VEC3"
		},
		{
			"bufferView":109,
			"componentType":5126,
			"count":2466,
			"type":"VEC2"
		},
		{
			"bufferView":110,
			"componentType":5126,
			"count":2466,
			"type":"VEC2"
		},
		{
			"bufferView":111,
			"componentType":5123,
			"count":4188,
			"type":"SCALAR"
		}
	],
	"bufferViews":[
		{
			"buffer":0,
			"byteLength":20244,
			"byteOffset":0,
			"target":34962
		},
		{
			"buffer":0,
			"byteLength":20244,
			"byteOffset":20244,
			"target":34962
		},
		{
			"buffer":0,
			"byteLength":13496,
			"byteOffset":40488,
			"target":34962
		},
		{
			"buffer":0,
			"byteLength":19044,
			"byteOffset":53984,
			"target":34963
		},
		{
			"buffer":0,
			"byteLength":24084,
			"byteOffset":73028,
			"target":34962
		},
		{
			"buffer":0,
			"byteLength":24084,
			"byteOffset":97112,
			"target":34962
		},
		{
			"buffer":0,
			"byteLength":16056,
			"byteOffset":121196,
			"target":34962
		},
		{
			"buffer":0,
			"byteLength":16896,
			"byteOffset":137252,
			"target":34963
		},
		{
			"buffer":0,
			"byteLength":24912,
			"byteOffset":154148,
			"target":34962
		},
		{
			"buffer":0,
			"byteLength":24912,
			"byteOffset":179060,
			"target":34962
		},
		{
			"buffer":0,
			"byteLength":16608,
			"byteOffset":203972,
			"target":34962
		},
		{
			"buffer":0,
			"byteLength":16896,
			"byteOffset":220580,
			"target":34963
		},
		{
			"buffer":0,
			"byteLength":89112,
			"byteOffset":237476,
			"target":34962
		},
		{
			"buffer":0,
			"byteLength":89112,
			"byteOffset":326588,
			"target":34962
		},
		{
			"buffer":0,
			"byteLength":59408,
			"byteOffset":415700,
			"target":34962
		},
		{
			"buffer":0,
			"byteLength":89088,
			"byteOffset":475108,
			"target":34963
		},
		{
			"buffer":0,
			"byteLength":72240,
			"byteOffset":564196,
			"target":34962
		},
		{
			"buffer":0,
			"byteLength":72240,
			"byteOffset":636436,
			"target":34962
		},
		{
			"buffer":0,
			"byteLength":48160,
			"byteOffset":708676,
			"target":34962
		},
		{
			"buffer":0,
			"byteLength":72192,
			"byteOffset":756836,
			"target":34963
		},
		{
			"buffer":0,
			"byteLength":74928,
			"byteOffset":829028,
			"target":34962
		},
		{
			"buffer":0,
			"byteLength":74928,
			"byteOffset":903956,
			"target":34962
		},
		{
			"buffer":0,
			"byteLength":49952,
			"byteOffset":978884,
			"target":34962
		},
		{
			"buffer":0,
			"byteLength":74880,
			"byteOffset":1028836,
			"target":34963
		},
		{
			"buffer":0,
			"byteLength":85680,
			"byteOffset":1103716,
			"target":34962
		},
		{
			"buffer":0,
			"byteLength":85680,
			"byteOffset":1189396,
			"target":34962
		},
		{
			"buffer":0,
			"byteLength":57120,
			"byteOffset":1275076,
			"target":34962
		},
		{
			"buffer":0,
			"byteLength":85632,
			"byteOffset":1332196,
			"target":34963
		},
		{
			"buffer":0,
			"byteLength":108312,
			"byteOffset":1417828,
			"target":34962
		},
		{
			"buffer":0,
			"byteLength":108312,
			"byteOffset":1526140,
			"target":34962
		},
		{
			"buffer":0,
			"byteLength":72208,
			"byteOffset":1634452,
			"target":34962
		},
		{
			"buffer":0,
			"byteLength":108288,
			"byteOffset":1706660,
			"target":34963
		},
		{
			"buffer":0,
			"byteLength":90672,
			"byteOffset":1814948,
			"target":34962
		},
		{
			"buffer":0,
			"byteLength":90672,
			"byteOffset":1905620,
			"target":34962
		},
		{
			"buffer":0,
			"byteLength":60448,
			"byteOffset":1996292,
			"target":34962
		},
		{
			"buffer":0,
			"byteLength":90624,
			"byteOffset":2056740,
			"target":34963
		},
		{
			"buffer":0,
			"byteLength":69912,
			"byteOffset":2147364,
			"target":34962
		},
		{
			"buffer":0,
			"byteLength":69912,
			"byteOffset":2217276,
			"target":34962
		},
		{
			"buffer":0,
			"byteLength":46608,
			"byteOffset":2287188,
			"target":34962
		},
		{
			"buffer":0,
			"byteLength":69888,
			"byteOffset":2333796,
			"target":34963
		},
		{
			"buffer":0,
			"byteLength":56496,
			"byteOffset":2403684,
			"target":34962
		},
		{
			"buffer":0,
			"byteLength":56496,
			"byteOffset":2460180,
			"target":34962
		},
		{
			"buffer":0,
			"byteLength":37664,
			"byteOffset":2516676,
			"target":34962
		},
		{
			"buffer":0,
			"byteLength":56448,
			"byteOffset":2554340,
			"target":34963
		},
		{
			"buffer":0,
			"byteLength":90432,
			"byteOffset":2610788,
			"target":34962
		},
		{
			"buffer":0,
			"byteLength":90432,
			"byteOffset":2701220,
			"target":34962
		},
		{
			"buffer":0,
			"byteLength":60288,
			"byteOffset":2791652,
			"target":34962
		},
		{
			"buffer":0,
			"byteLength":90432,
			"byteOffset":2851940,
			"target":34963
		},
		{
			"buffer":0,
			"byteLength":86808,
			"byteOffset":2942372,
			"target":34962
		},
		{
			"buffer":0,
			"byteLength":86808,
			"byteOffset":3029180,
			"target":34962
		},
		{
			"buffer":0,
			"byteLength":57872,
			"byteOffset":3115988,
			"target":34962
		},
		{
			"buffer":0,
			"byteLength":86784,
			"byteOffset":3173860,
			"target":34963
		},
		{
			"buffer":0,
			"byteLength":26292,
			"byteOffset":3260644,
			"target":34962
		},
		{
			"buffer":0,
			"byteLength":26292,
			"byteOffset":3286936,
			"target":34962
		},
		{
			"buffer":0,
			"byteLength":17528,
			"byteOffset":3313228,
			"target":34962
		},
		{
			"buffer":0,
			"byteLength":18042,
			"byteOffset":3330756,
			"target":34963
		},
		{
			"buffer":0,
			"byteLength":45960,
			"byteOffset":3348800,
			"target":34962
		},
		{
			"buffer":0,
			"byteLength":45960,
			"byteOffset":3394760,
			"target":34962
		},
		{
			"buffer":0,
			"byteLength":30640,
			"byteOffset":3440720,
			"target":34962
		},
		{
			"buffer":0,
			"byteLength":44352,
			"byteOffset":3471360,
			"target":34963
		},
		{
			"buffer":0,
			"byteLength":2304,
			"byteOffset":3515712,
			"target":34962
		},
		{
			"buffer":0,
			"byteLength":2304,
			"byteOffset":3518016,
			"target":34962
		},
		{
			"buffer":0,
			"byteLength":1152,
			"byteOffset":3520320,
			"target":34963
		},
		{
			"buffer":0,
			"byteLength":2304,
			"byteOffset":3521472,
			"target":34962
		},
		{
			"buffer":0,
			"byteLength":2304,
			"byteOffset":3523776,
			"target":34962
		},
		{
			"buffer":0,
			"byteLength":21612,
			"byteOffset":3526080,
			"target":34962
		},
		{
			"buffer":0,
			"byteLength":21612,
			"byteOffset":3547692,
			"target":34962
		},
		{
			"buffer":0,
			"byteLength":14408,
			"byteOffset":3569304,
			"target":34962
		},
		{
			"buffer":0,
			"byteLength":14408,
			"byteOffset":3583712,
			"target":34962
		},
		{
			"buffer":0,
			"byteLength":14408,
			"byteOffset":3598120,
			"target":34962
		},
		{
			"buffer":0,
			"byteLength":14408,
			"byteOffset":3612528,
			"target":34962
		},
		{
			"buffer":0,
			"byteLength":14408,
			"byteOffset":3626936,
			"target":34962
		},
		{
			"buffer":0,
			"byteLength":14408,
			"byteOffset":3641344,
			"target":34962
		},
		{
			"buffer":0,
			"byteLength":14408,
			"byteOffset":3655752,
			"target":34962
		},
		{
			"buffer":0,
			"byteLength":14408,
			"byteOffset":3670160,
			"target":34962
		},
		{
			"buffer":0,
			"byteLength":14418,
			"byteOffset":3684568,
			"target":34963
		},
		{
			"buffer":0,
			"byteLength":2940,
			"byteOffset":3698988,
			"target":34962
		},
		{
			"buffer":0,
			"byteLength":2940,
			"byteOffset":3701928,
			"target":34962
		},
		{
			"buffer":0,
			"byteLength":1960,
			"byteOffset":3704868,
			"target":34962
		},
		{
			"buffer":0,
			"byteLength":2568,
			"byteOffset":3706828,
			"target":34963
		},
		{
			"buffer":0,
			"byteLength":2940,
			"byteOffset":3709396,
			"target":34962
		},
		{
			"buffer":0,
			"byteLength":2940,
			"byteOffset":3712336,
			"target":34962
		},
		{
			"buffer":0,
			"byteLength":1960,
			"byteOffset":3715276,
			"target":34962
		},
		{
			"buffer":0,
			"byteLength":2568,
			"byteOffset":3717236,
			"target":34963
		},
		{
			"buffer":0,
			"byteLength":46236,
			"byteOffset":3719804,
			"target":34962
		},
		{
			"buffer":0,
			"byteLength":46236,
			"byteOffset":3766040,
			"target":34962
		},
		{
			"buffer":0,
			"byteLength":30824,
			"byteOffset":3812276,
			"target":34962
		},
		{
			"buffer":0,
			"byteLength":31812,
			"byteOffset":3843100,
			"target":34963
		},
		{
			"buffer":0,
			"byteLength":47184,
			"byteOffset":3874912,
			"target":34962
		},
		{
			"buffer":0,
			"byteLength":47184,
			"byteOffset":3922096,
			"target":34962
		},
		{
			"buffer":0,
			"byteLength":31456,
			"byteOffset":3969280,
			"target":34962
		},
		{
			"buffer":0,
			"byteLength":31812,
			"byteOffset":4000736,
			"target":34963
		},
		{
			"buffer":0,
			"byteLength":98040,
			"byteOffset":4032548,
			"target":34962
		},
		{
			"buffer":0,
			"byteLength":98040,
			"byteOffset":4130588,
			"target":34962
		},
		{
			"buffer":0,
			"byteLength":65360,
			"byteOffset":4228628,
			"target":34962
		},
		{
			"buffer":0,
			"byteLength":65360,
			"byteOffset":4293988,
			"target":34962
		},
		{
			"buffer":0,
			"byteLength":69120,
			"byteOffset":4359348,
			"target":34963
		},
		{
			"buffer":0,
			"byteLength":625116,
			"byteOffset":4428468,
			"target":34962
		},
		{
			"buffer":0,
			"byteLength":625116,
			"byteOffset":5053584,
			"target":34962
		},
		{
			"buffer":0,
			"byteLength":416744,
			"byteOffset":5678700,
			"target":34962
		},
		{
			"buffer":0,
			"byteLength":416744,
			"byteOffset":6095444,
			"target":34962
		},
		{
			"buffer":0,
			"byteLength":607656,
			"byteOffset":6512188,
			"target":34963
		},
		{
			"buffer":0,
			"byteLength":2502252,
			"byteOffset":7119844,
			"target":34962
		},
		{
			"buffer":0,
			"byteLength":2502252,
			"byteOffset":9622096,
			"target":34962
		},
		{
			"buffer":0,
			"byteLength":1668168,
			"byteOffset":12124348,
			"target":34962
		},
		{
			"buffer":0,
			"byteLength":1668168,
			"byteOffset":13792516,
			"target":34962
		},
		{
			"buffer":0,
			"byteLength":4891728,
			"byteOffset":15460684,
			"target":34963
		},
		{
			"buffer":0,
			"byteLength":29592,
			"byteOffset":20352412,
			"target":34962
		},
		{
			"buffer":0,
			"byteLength":29592,
			"byteOffset":20382004,
			"target":34962
		},
		{
			"buffer":0,
			"byteLength":19728,
			"byteOffset":20411596,
			"target":34962
		},
		{
			"buffer":0,
			"byteLength":19728,
			"byteOffset":20431324,
			"target":34962
		},
		{
			"buffer":0,
			"byteLength":8376,
			"byteOffset":20451052,
			"target":34963
		}
	],
	"samplers":[
		{
			"magFilter":9729,
			"minFilter":9987
		}
	],
	"buffers":[
		{
			"byteLength":20459428,
			"uri":"tier2.bin"
		}
	]
}
