{
	"asset":{
		"generator":"Khronos glTF Blender I/O v5.0.21",
		"version":"2.0"
	},
	"scene":0,
	"scenes":[
		{
			"name":"Scene",
			"nodes":[
				0,
				2,
				3,
				4,
				5,
				6,
				7
			]
		}
	],
	"nodes":[
		{
			"mesh":0,
			"name":"Cake",
			"scale":[
				0.9521910548210144,
				0.9182052612304688,
				0.9521910548210144
			],
			"translation":[
				0,
				1.8900001049041748,
				0
			]
		},
		{
			"mesh":1,
			"name":"Base-2",
			"scale":[
				1.007614016532898,
				1.0076141357421875,
				1.0076141357421875
			],
			"translation":[
				0,
				0,
				-27.200000762939453
			]
		},
		{
			"children":[
				1
			],
			"name":"stand",
			"rotation":[
				0.70710688829422,
				0,
				0,
				0.7071066498756409
			],
			"scale":[
				0.06730819493532181,
				0.06730816513299942,
				0.06730816513299942
			]
		},
		{
			"mesh":2,
			"name":"chandel",
			"rotation":[
				-0.70710688829422,
				0,
				0,
				0.7071066498756409
			],
			"scale":[
				-0.032398007810115814,
				-0.03239800035953522,
				-0.03239800035953522
			],
			"translation":[
				0.05652042478322983,
				2.841123580932617,
				0.05129079520702362
			]
		},
		{
			"mesh":3,
			"name":"nuts",
			"rotation":[
				0.11667908728122711,
				0.6974138021469116,
				-0.6974138021469116,
				0.11667913943529129
			],
			"scale":[
				0.1593562513589859,
				0.15935619175434113,
				0.15935613214969635
			],
			"translation":[
				0.03371637687087059,
				2.9886631965637207,
				0.4304376542568207
			]
		},
		{
			"mesh":4,
			"name":"bar",
			"rotation":[
				-0.3871666193008423,
				-0.8715487718582153,
				0.2227635681629181,
				0.20219086110591888
			],
			"scale":[
				0.07990869879722595,
				0.07990869879722595,
				0.07990872859954834
			],
			"translation":[
				-0.0575796402990818,
				3.194897174835205,
				-0.14195062220096588
			]
		},
		{
			"mesh":5,
			"name":"balls",
			"rotation":[
				-0.8819843530654907,
				-0.10750564187765121,
				-0.24399903416633606,
				0.3886010944843292
			],
			"scale":[
				-0.04154821112751961,
				-0.0415482260286808,
				-0.0415482223033905
			],
			"translation":[
				0.10769150406122208,
				2.9856984615325928,
				0.208953857421875
			]
		},
		{
			"mesh":6,
			"name":"Cake_Rectangle",
			"scale":[
				0.849536120891571,
				0.849536120891571,
				0.849536120891571
			],
			"translation":[
				-0.0009237490594387054,
				1.0629512071609497,
				-0.0008959919214248657
			]
		}
	],
	"materials":[
		{
			"doubleSided":true,
			"name":"Cake",
			"pbrMetallicRoughness":{
				"baseColorFactor":[
					0.798916220664978,
					0.3718603551387787,
					0.8000000715255737,
					1
				],
				"metallicFactor":0,
				"roughnessFactor":0.7134328484535217
			}
		},
		{
			"doubleSided":true,
			"name":"Cake.001",
			"pbrMetallicRoughness":{
				"baseColorFactor":[
					0.798916220664978,
					0.3718603551387787,
					0.8000000715255737,
					1
				],
				"metallicFactor":0,
				"roughnessFactor":0.7134328484535217
			}
		},
		{
			"doubleSided":true,
			"name":"Strip Part",
			"pbrMetallicRoughness":{
				"baseColorFactor":[
					0.800000011920929,
					0.800000011920929,
					0.800000011920929,
					1
				],
				"roughnessFactor":0.5527864098548889
			}
		},
		{
			"doubleSided":true,
			"name":"Primary Part",
			"pbrMetallicRoughness":{
				"baseColorFactor":[
					0.800000011920929,
					0.800000011920929,
					0.800000011920929,
					1
				],
				"roughnessFactor":0.5527864098548889
			}
		},
		{
			"doubleSided":true,
			"name":"Add Part M",
			"pbrMetallicRoughness":{
				"baseColorFactor":[
					0.800000011920929,
					0.800000011920929,
					0.800000011920929,
					1
				],
				"roughnessFactor":0.5527864098548889
			}
		},
		{
			"doubleSided":true,
			"name":"plastic1",
			"pbrMetallicRoughness":{
				"baseColorFactor":[
					0.9054136872291565,
					0.9054136872291565,
					0.9054136872291565,
					1
				],
				"roughnessFactor":0.4763636589050293
			}
		},
		{
			"doubleSided":true,
			"name":"chandel",
			"pbrMetallicRoughness":{
				"baseColorFactor":[
					1,
					0.7438003420829773,
					0.06327110528945923,
					1
				],
				"roughnessFactor":0.5
			}
		},
		{
			"doubleSided":true,
			"name":"Default",
			"pbrMetallicRoughness":{
				"baseColorFactor":[
					0.39015689492225647,
					0.1246422529220581,
					0.05855438858270645,
					1
				],
				"metallicFactor":0.29357796907424927,
				"roughnessFactor":0.5527864098548889
			}
		},
		{
			"doubleSided":true,
			"name":"choco",
			"pbrMetallicRoughness":{
				"baseColorFactor":[
					0.8000000715255737,
					0.3774730861186981,
					0.1561039686203003,
					1
				],
				"metallicFactor":0.41044774651527405,
				"roughnessFactor":0.4000000059604645
			}
		},
		{
			"doubleSided":true,
			"name":"balls",
			"pbrMetallicRoughness":{
				"baseColorFactor":[
					0.8000000715255737,
					0.7753702402114868,
					0.4842037856578827,
					1
				],
				"metallicFactor":0.447761207818985,
				"roughnessFactor":0.4000000059604645
			}
		}
	],
	"meshes":[
		{
			"name":"Cake",
			"primitives":[
				{
					"attributes":{
						"POSITION":0,
						"NORMAL":1,
						"TEXCOORD_0":2
					},
					"indices":3,
					"material":0
				},
				{
					"attributes":{
						"POSITION":4,
						"NORMAL":5,
						"TEXCOORD_0":6
					},
					"indices":7,
					"material":1
				}
			]
		},
		{
			"name":"Mesh.004",
			"primitives":[
				{
					"attributes":{
						"POSITION":8,
						"NORMAL":9,
						"TEXCOORD_0":10,
						"TEXCOORD_1":11
					},
					"indices":12,
					"material":2
				},
				{
					"attributes":{
						"POSITION":13,
						"NORMAL":14,
						"TEXCOORD_0":15,
						"TEXCOORD_1":16
					},
					"indices":17,
					"material":3
				},
				{
					"attributes":{
						"POSITION":18,
						"NORMAL":19,
						"TEXCOORD_0":20,
						"TEXCOORD_1":21
					},
					"indices":22,
					"material":4
				},
				{
					"attributes":{
						"POSITION":23,
						"NORMAL":24,
						"TEXCOORD_0":25,
						"TEXCOORD_1":26
					},
					"indices":27,
					"material":5
				}
			]
		},
		{
			"name":"chandel",
			"primitives":[
				{
					"attributes":{
						"POSITION":28,
						"NORMAL":29,
						"TEXCOORD_0":30
					},
					"indices":31,
					"material":6
				}
			]
		},
		{
			"name":"Mesh.021",
			"primitives":[
				{
					"attributes":{
						"POSITION":32,
						"NORMAL":33,
						"TEXCOORD_0":34,
						"TEXCOORD_1":35,
						"TEXCOORD_2":36,
						"TEXCOORD_3":37,
						"TEXCOORD_4":38,
						"TEXCOORD_5":39,
						"TEXCOORD_6":40,
						"TEXCOORD_7":41
					},
					"indices":42,
					"material":7
				}
			]
		},
		{
			"name":"bar",
			"primitives":[
				{
					"attributes":{
						"POSITION":43,
						"NORMAL":44,
						"TEXCOORD_0":45
					},
					"indices":46,
					"material":8
				}
			]
		},
		{
			"name":"sphere-podium-01",
			"primitives":[
				{
					"attributes":{
						"POSITION":47,
						"NORMAL":48,
						"TEXCOORD_0":49
					},
					"indices":50,
					"material":9
				}
			]
		},
		{
			"name":"Cube.001",
			"primitives":[
				{
					"attributes":{
						"POSITION":51,
						"NORMAL":52,
						"TEXCOORD_0":53
					},
					"indices":54
				}
			]
		}
	],
	"accessors":[
		{
			"bufferView":0,
			"componentType":5126,
			"count":3763,
			"max":[
				1.0000001192092896,
				0.5049999952316284,
				1.0000001192092896
			],
			"min":[
				-1.0000001192092896,
				-0.5049999952316284,
				-1.0000001192092896
			],
			"type":"VEC3"
		},
		{
			"bufferView":1,
			"componentType":5126,
			"count":3763,
			"type":"VEC3"
		},
		{
			"bufferView":2,
			"componentType":5126,
			"count":3763,
			"type":"VEC2"
		},
		{
			"bufferView":3,
			"componentType":5123,
			"count":15906,
			"type":"SCALAR"
		},
		{
			"bufferView":4,
			"componentType":5126,
			"count":3953,
			"max":[
				0.7978252172470093,
				1.2758513689041138,
				0.8002153635025024
			],
			"min":[
				-0.8047611713409424,
				0.4665454626083374,
				-0.8023710250854492
			],
			"type":"VEC3"
		},
		{
			"bufferView":5,
			"componentType":5126,
			"count":3953,
			"type":"VEC3"
		},
		{
			"bufferView":6,
			"componentType":5126,
			"count":3953,
			"type":"VEC2"
		},
		{
			"bufferView":7,
			"componentType":5123,
			"count":15906,
			"type":"SCALAR"
		},
		{
			"bufferView":8,
			"componentType":5126,
			"count":8170,
			"max":[
				8.75037956237793,
				8.747909545898438,
				26.213991165161133
			],
			"min":[
				-8.746509552001953,
				-8.748979568481445,
				26.122730255126953
			],
			"type":"VEC3"
		},
		{
			"bufferView":9,
			"componentType":5126,
			"count":8170,
			"type":"VEC3"
		},
		{
			"bufferView":10,
			"componentType":5126,
			"count":8170,
			"type":"VEC2"
		},
		{
			"bufferView":11,
			"componentType":5126,
			"count":8170,
			"type":"VEC2"
		},
		{
			"bufferView":12,
			"componentType":5123,
			"count":34560,
			"type":"SCALAR"
		},
		{
			"bufferView":13,
			"componentType":5126,
			"count":52093,
			"max":[
				8.853130340576172,
				8.853519439697266,
				26.723876953125
			],
			"min":[
				-8.853110313415527,
				-8.852709770202637,
				26.124021530151367
			],
			"type":"VEC3"
		},
		{
			"bufferView":14,
			"componentType":5126,
			"count":52093,
			"type":"VEC3"
		},
		{
			"bufferView":15,
			"componentType":5126,
			"count":52093,
			"type":"VEC2"
		},
		{
			"bufferView":16,
			"componentType":5126,
			"count":52093,
			"type":"VEC2"
		},
		{
			"bufferView":17,
			"componentType":5123,
			"count":303828,
			"type":"SCALAR"
		},
		{
			"bufferView":18,
			"componentType":5126,
			"count":208521,
			"max":[
				8.747010231018066,
				8.744500160217285,
				26.20990562438965
			],
			"min":[
				-8.743090629577637,
				-8.745590209960938,
				6.342200756072998
			],
			"type":"VEC3"
		},
		{
			"bufferView":19,
			"componentType":5126,
			"count":208521,
			"type":"VEC3"
		},
		{
			"bufferView":20,
			"componentType":5126,
			"count":208521,
			"type":"VEC2"
		},
		{
			"bufferView":21,
			"componentType":5126,
			"count":208521,
			"type":"VEC2"
		},
		{
			"bufferView":22,
			"componentType":5125,
			"count":1222932,
			"type":"SCALAR"
		},
		{
			"bufferView":23,
			"componentType":5126,
			"count":2466,
			"max":[
				16.955799102783203,
				16.956480026245117,
				6.572969436645508
			],
			"min":[
				-16.955799102783203,
				-16.95648765563965,
				5.835725784301758
			],
			"type":"VEC3"
		},
		{
			"bufferView":24,
			"componentType":5126,
			"count":2466,
			"type":"VEC3"
		},
		{
			"bufferView":25,
			"componentType":5126,
			"count":2466,
			"type":"VEC2"
		},
		{
			"bufferView":26,
			"componentType":5126,
			"count":2466,
			"type":"VEC2"
		},
		{
			"bufferView":27,
			"componentType":5123,
			"count":4188,
			"type":"SCALAR"
		},
		{
			"bufferView":28,
			"componentType":5126,
			"count":2191,
			"max":[
				12.307149887084961,
				2.4862890243530273,
				-0.08048223704099655
			],
			"min":[
				-12.246755599975586,
				-2.486287832260132,
				-35.94937515258789
			],
			"type":"VEC3"
		},
		{
			"bufferView":29,
			"componentType":5126,
			"count":2191,
			"type":"VEC3"
		},
		{
			"bufferView":30,
			"componentType":5126,
			"count":2191,
			"type":"VEC2"
		},
		{
			"bufferView":31,
			"componentType":5123,
			"count":9021,
			"type":"SCALAR"
		},
		{
			"bufferView":32,
			"componentType":5126,
			"count":1801,
			"max":[
				5.157455921173096,
				6.677026748657227,
				0.1236448585987091
			],
			"min":[
				-2.7750861644744873,
				-1.7895127534866333,
				-1.0552083253860474
			],
			"type":"VEC3"
		},
		{
			"bufferView":33,
			"componentType":5126,
			"count":1801,
			"type":"VEC3"
		},
		{
			"bufferView":34,
			"componentType":5126,
			"count":1801,
			"type":"VEC2"
		},
		{
			"bufferView":35,
			"componentType":5126,
			"count":1801,
			"type":"VEC2"
		},
		{
			"bufferView":36,
			"componentType":5126,
			"count":1801,
			"type":"VEC2"
		},
		{
			"bufferView":37,
			"componentType":5126,
			"count":1801,
			"type":"VEC2"
		},
		{
			"bufferView":38,
			"componentType":5126,
			"count":1801,
			"type":"VEC2"
		},
		{
			"bufferView":39,
			"componentType":5126,
			"count":1801,
			"type":"VEC2"
		},
		{
			"bufferView":40,
			"componentType":5126,
			"count":1801,
			"type":"VEC2"
		},
		{
			"bufferView":41,
			"componentType":5126,
			"count":1801,
			"type":"VEC2"
		},
		{
			"bufferView":42,
			"componentType":5123,
			"count":7209,
			"type":"SCALAR"
		},
		{
			"bufferView":43,
			"componentType":5126,
			"count":2005,
			"max":[
				6.851719856262207,
				3.650960683822632,
				2.8542774089146405e-05
			],
			"min":[
				-6.862420082092285,
				-3.669043779373169,
				-0.7603753805160522
			],
			"type":"VEC3"
		},
		{
			"bufferView":44,
			"componentType":5126,
			"count":2005,
			"type":"VEC3"
		},
		{
			"bufferView":45,
			"componentType":5126,
			"count":2005,
			"type":"VEC2"
		},
		{
			"bufferView":46,
			"componentType":5123,
			"count":8448,
			"type":"SCALAR"
		},
		{
			"bufferView":47,
			"componentType":5126,
			"count":1687,
			"max":[
				4.989811420440674,
				8.861030578613281,
				6.418581008911133
			],
			"min":[
				-7.616989612579346,
				-4.9872846603393555,
				-10.005023002624512
			],
			"type":"VEC3"
		},
		{
			"bufferView":48,
			"componentType":5126,
			"count":1687,
			"type":"VEC3"
		},
		{
			"bufferView":49,
			"componentType":5126,
			"count":1687,
			"type":"VEC2"
		},
		{
			"bufferView":50,
			"componentType":5123,
			"count":9522,
			"type":"SCALAR"
		},
		{
			"bufferView":51,
			"componentType":5126,
			"count":490,
			"max":[
				1.1216989755630493,
				2.3534998893737793,
				1.1216663122177124
			],
			"min":[
				-1.119524359703064,
				0.4279381036758423,
				-1.1195570230484009
			],
			"type":"VEC3"
		},
		{
			"bufferView":52,
			"componentType":5126,
			"count":490,
			"type":"VEC3"
		},
		{
			"bufferView":53,
			"componentType":5126,
			"count":490,
			"type":"VEC2"
		},
		{
			"bufferView":54,
			"componentType":5123,
			"count":2568,
			"type":"SCALAR"
		}
	],
	"bufferViews":[
		{
			"buffer":0,
			"byteLength":45156,
			"byteOffset":0,
			"target":34962
		},
		{
			"buffer":0,
			"byteLength":45156,
			"byteOffset":45156,
			"target":34962
		},
		{
			"buffer":0,
			"byteLength":30104,
			"byteOffset":90312,
			"target":34962
		},
		{
			"buffer":0,
			"byteLength":31812,
			"byteOffset":120416,
			"target":34963
		},
		{
			"buffer":0,
			"byteLength":47436,
			"byteOffset":152228,
			"target":34962
		},
		{
			"buffer":0,
			"byteLength":47436,
			"byteOffset":199664,
			"target":34962
		},
		{
			"buffer":0,
			"byteLength":31624,
			"byteOffset":247100,
			"target":34962
		},
		{
			"buffer":0,
			"byteLength":31812,
			"byteOffset":278724,
			"target":34963
		},
		{
			"buffer":0,
			"byteLength":98040,
			"byteOffset":310536,
			"target":34962
		},
		{
			"buffer":0,
			"byteLength":98040,
			"byteOffset":408576,
			"target":34962
		},
		{
			"buffer":0,
			"byteLength":65360,
			"byteOffset":506616,
			"target":34962
		},
		{
			"buffer":0,
			"byteLength":65360,
			"byteOffset":571976,
			"target":34962
		},
		{
			"buffer":0,
			"byteLength":69120,
			"byteOffset":637336,
			"target":34963
		},
		{
			"buffer":0,
			"byteLength":625116,
			"byteOffset":706456,
			"target":34962
		},
		{
			"buffer":0,
			"byteLength":625116,
			"byteOffset":1331572,
			"target":34962
		},
		{
			"buffer":0,
			"byteLength":416744,
			"byteOffset":1956688,
			"target":34962
		},
		{
			"buffer":0,
			"byteLength":416744,
			"byteOffset":2373432,
			"target":34962
		},
		{
			"buffer":0,
			"byteLength":607656,
			"byteOffset":2790176,
			"target":34963
		},
		{
			"buffer":0,
			"byteLength":2502252,
			"byteOffset":3397832,
			"target":34962
		},
		{
			"buffer":0,
			"byteLength":2502252,
			"byteOffset":5900084,
			"target":34962
		},
		{
			"buffer":0,
			"byteLength":1668168,
			"byteOffset":8402336,
			"target":34962
		},
		{
			"buffer":0,
			"byteLength":1668168,
			"byteOffset":10070504,
			"target":34962
		},
		{
			"buffer":0,
			"byteLength":4891728,
			"byteOffset":11738672,
			"target":34963
		},
		{
			"buffer":0,
			"byteLength":29592,
			"byteOffset":16630400,
			"target":34962
		},
		{
			"buffer":0,
			"byteLength":29592,
			"byteOffset":16659992,
			"target":34962
		},
		{
			"buffer":0,
			"byteLength":19728,
			"byteOffset":16689584,
			"target":34962
		},
		{
			"buffer":0,
			"byteLength":19728,
			"byteOffset":16709312,
			"target":34962
		},
		{
			"buffer":0,
			"byteLength":8376,
			"byteOffset":16729040,
			"target":34963
		},
		{
			"buffer":0,
			"byteLength":26292,
			"byteOffset":16737416,
			"target":34962
		},
		{
			"buffer":0,
			"byteLength":26292,
			"byteOffset":16763708,
			"target":34962
		},
		{
			"buffer":0,
			"byteLength":17528,
			"byteOffset":16790000,
			"target":34962
		},
		{
			"buffer":0,
			"byteLength":18042,
			"byteOffset":16807528,
			"target":34963
		},
		{
			"buffer":0,
			"byteLength":21612,
			"byteOffset":16825572,
			"target":34962
		},
		{
			"buffer":0,
			"byteLength":21612,
			"byteOffset":16847184,
			"target":34962
		},
		{
			"buffer":0,
			"byteLength":14408,
			"byteOffset":16868796,
			"target":34962
		},
		{
			"buffer":0,
			"byteLength":14408,
			"byteOffset":16883204,
			"target":34962
		},
		{
			"buffer":0,
			"byteLength":14408,
			"byteOffset":16897612,
			"target":34962
		},
		{
			"buffer":0,
			"byteLength":14408,
			"byteOffset":16912020,
			"target":34962
		},
		{
			"buffer":0,
			"byteLength":14408,
			"byteOffset":16926428,
			"target":34962
		},
		{
			"buffer":0,
			"byteLength":14408,
			"byteOffset":16940836,
			"target":34962
		},
		{
			"buffer":0,
			"byteLength":14408,
			"byteOffset":16955244,
			"target":34962
		},
		{
			"buffer":0,
			"byteLength":14408,
			"byteOffset":16969652,
			"target":34962
		},
		{
			"buffer":0,
			"byteLength":14418,
			"byteOffset":16984060,
			"target":34963
		},
		{
			"buffer":0,
			"byteLength":24060,
			"byteOffset":16998480,
			"target":34962
		},
		{
			"buffer":0,
			"byteLength":24060,
			"byteOffset":17022540,
			"target":34962
		},
		{
			"buffer":0,
			"byteLength":16040,
			"byteOffset":17046600,
			"target":34962
		},
		{
			"buffer":0,
			"byteLength":16896,
			"byteOffset":17062640,
			"target":34963
		},
		{
			"buffer":0,
			"byteLength":20244,
			"byteOffset":17079536,
			"target":34962
		},
		{
			"buffer":0,
			"byteLength":20244,
			"byteOffset":17099780,
			"target":34962
		},
		{
			"buffer":0,
			"byteLength":13496,
			"byteOffset":17120024,
			"target":34962
		},
		{
			"buffer":0,
			"byteLength":19044,
			"byteOffset":17133520,
			"target":34963
		},
		{
			"buffer":0,
			"byteLength":5880,
			"byteOffset":17152564,
			"target":34962
		},
		{
			"buffer":0,
			"byteLength":5880,
			"byteOffset":17158444,
			"target":34962
		},
		{
			"buffer":0,
			"byteLength":3920,
			"byteOffset":17164324,
			"target":34962
		},
		{
			"buffer":0,
			"byteLength":5136,
			"byteOffset":17168244,
			"target":34963
		}
	],
	"buffers":[
		{
			"byteLength":17173380,
			"uri":"tier2.bin"
		}
	]
}
