{
	"asset":{
		"generator":"Khronos glTF Blender I/O v5.0.21",
		"version":"2.0"
	},
	"scene":0,
	"scenes":[
		{
			"name":"Scene",
			"nodes":[
				0,
				2,
				3,
				4,
				5,
				6,
				7
			]
		}
	],
	"nodes":[
		{
			"mesh":0,
			"name":"Cake",
			"scale":[
				0.9521910548210144,
				0.9182052612304688,
				0.9521910548210144
			],
			"translation":[
				0,
				1.8900001049041748,
				0
			]
		},
		{
			"mesh":1,
			"name":"Base-2",
			"scale":[
				1.007614016532898,
				1.0076141357421875,
				1.0076141357421875
			],
			"translation":[
				0,
				0,
				-27.200000762939453
			]
		},
		{
			"children":[
				1
			],
			"name":"stand",
			"rotation":[
				0.70710688829422,
				0,
				0,
				0.7071066498756409
			],
			"scale":[
				0.06730819493532181,
				0.06730816513299942,
				0.06730816513299942
			]
		},
		{
			"mesh":2,
			"name":"chandel",
			"rotation":[
				-0.70710688829422,
				0,
				0,
				0.7071066498756409
			],
			"scale":[
				-0.032398007810115814,
				-0.03239800035953522,
				-0.03239800035953522
			],
			"translation":[
				0.050796978175640106,
				3.704211711883545,
				-0.004619628190994263
			]
		},
		{
			"mesh":3,
			"name":"nuts",
			"rotation":[
				0.11667908728122711,
				0.6974137425422668,
				-0.6974138021469116,
				0.11667913943529129
			],
			"scale":[
				0.10030302405357361,
				0.10030299425125122,
				0.10030294954776764
			],
			"translation":[
				0.02059149369597435,
				4.060366630554199,
				0.2729160487651825
			]
		},
		{
			"mesh":4,
			"name":"bar",
			"rotation":[
				-0.3871666193008423,
				-0.8715487718582153,
				0.2227635681629181,
				0.20219086110591888
			],
			"scale":[
				0.04267563670873642,
				0.04267563670873642,
				0.042675651609897614
			],
			"translation":[
				-0.016451723873615265,
				3.9751224517822266,
				-0.15801924467086792
			]
		},
		{
			"mesh":5,
			"name":"balls",
			"rotation":[
				-0.474343866109848,
				0.36988288164138794,
				0.7524885535240173,
				0.26822710037231445
			],
			"scale":[
				-0.02123628370463848,
				-0.02123628742992878,
				-0.021236281841993332
			],
			"translation":[
				-0.029840931296348572,
				4.04125452041626,
				0.175191730260849
			]
		},
		{
			"mesh":6,
			"name":"Cake_Rectangle",
			"scale":[
				0.849536120891571,
				0.849536120891571,
				0.849536120891571
			],
			"translation":[
				-0.0009237490594387054,
				1.0629512071609497,
				-0.0008959919214248657
			]
		}
	],
	"materials":[
		{
			"doubleSided":true,
			"name":"Cake",
			"pbrMetallicRoughness":{
				"baseColorFactor":[
					0.798916220664978,
					0.3718603551387787,
					0.8000000715255737,
					1
				],
				"metallicFactor":0,
				"roughnessFactor":0.7134328484535217
			}
		},
		{
			"doubleSided":true,
			"name":"Cake.001",
			"pbrMetallicRoughness":{
				"baseColorFactor":[
					0.798916220664978,
					0.3718603551387787,
					0.8000000715255737,
					1
				],
				"metallicFactor":0,
				"roughnessFactor":0.7134328484535217
			}
		},
		{
			"doubleSided":true,
			"name":"Cake.002",
			"pbrMetallicRoughness":{
				"baseColorFactor":[
					0.798916220664978,
					0.3718603551387787,
					0.8000000715255737,
					1
				],
				"metallicFactor":0,
				"roughnessFactor":0.7134328484535217
			}
		},
		{
			"doubleSided":true,
			"name":"Cake.003",
			"pbrMetallicRoughness":{
				"baseColorFactor":[
					0.798916220664978,
					0.3718603551387787,
					0.8000000715255737,
					1
				],
				"metallicFactor":0,
				"roughnessFactor":0.7134328484535217
			}
		},
		{
			"doubleSided":true,
			"name":"Strip Part",
			"pbrMetallicRoughness":{
				"baseColorFactor":[
					0.800000011920929,
					0.800000011920929,
					0.800000011920929,
					1
				],
				"roughnessFactor":0.5527864098548889
			}
		},
		{
			"doubleSided":true,
			"name":"Primary Part",
			"pbrMetallicRoughness":{
				"baseColorFactor":[
					0.800000011920929,
					0.800000011920929,
					0.800000011920929,
					1
				],
				"roughnessFactor":0.5527864098548889
			}
		},
		{
			"doubleSided":true,
			"name":"Add Part M",
			"pbrMetallicRoughness":{
				"baseColorFactor":[
					0.800000011920929,
					0.800000011920929,
					0.800000011920929,
					1
				],
				"roughnessFactor":0.5527864098548889
			}
		},
		{
			"doubleSided":true,
			"name":"plastic1",
			"pbrMetallicRoughness":{
				"baseColorFactor":[
					0.9054136872291565,
					0.9054136872291565,
					0.9054136872291565,
					1
				],
				"roughnessFactor":0.4763636589050293
			}
		},
		{
			"doubleSided":true,
			"name":"chandel",
			"pbrMetallicRoughness":{
				"baseColorFactor":[
					1,
					0.7438003420829773,
					0.06327110528945923,
					1
				],
				"roughnessFactor":0.5
			}
		},
		{
			"doubleSided":true,
			"name":"Default",
			"pbrMetallicRoughness":{
				"baseColorFactor":[
					0.39015689492225647,
					0.1246422529220581,
					0.05855438858270645,
					1
				],
				"metallicFactor":0.29357796907424927,
				"roughnessFactor":0.5527864098548889
			}
		},
		{
			"doubleSided":true,
			"name":"choco",
			"pbrMetallicRoughness":{
				"baseColorFactor":[
					0.8000000715255737,
					0.3774730861186981,
					0.1561039686203003,
					1
				],
				"metallicFactor":0.41044774651527405,
				"roughnessFactor":0.4000000059604645
			}
		},
		{
			"doubleSided":true,
			"name":"choco.001",
			"pbrMetallicRoughness":{
				"baseColorFactor":[
					0.8000000715255737,
					0.3774730861186981,
					0.1561039686203003,
					1
				],
				"metallicFactor":0.41044774651527405,
				"roughnessFactor":0.4000000059604645
			}
		},
		{
			"doubleSided":true,
			"name":"balls",
			"pbrMetallicRoughness":{
				"baseColorFactor":[
					0.8000000715255737,
					0.7753702402114868,
					0.4842037856578827,
					1
				],
				"metallicFactor":0.447761207818985,
				"roughnessFactor":0.4000000059604645
			}
		}
	],
	"meshes":[
		{
			"name":"Cake",
			"primitives":[
				{
					"attributes":{
						"POSITION":0,
						"NORMAL":1,
						"TEXCOORD_0":2
					},
					"indices":3,
					"material":0
				},
				{
					"attributes":{
						"POSITION":4,
						"NORMAL":5,
						"TEXCOORD_0":6
					},
					"indices":7,
					"material":1
				},
				{
					"attributes":{
						"POSITION":8,
						"NORMAL":9,
						"TEXCOORD_0":10
					},
					"indices":11,
					"material":2
				},
				{
					"attributes":{
						"POSITION":12,
						"NORMAL":13,
						"TEXCOORD_0":14
					},
					"indices":15,
					"material":3
				}
			]
		},
		{
			"name":"Mesh.004",
			"primitives":[
				{
					"attributes":{
						"POSITION":16,
						"NORMAL":17,
						"TEXCOORD_0":18,
						"TEXCOORD_1":19
					},
					"indices":20,
					"material":4
				},
				{
					"attributes":{
						"POSITION":21,
						"NORMAL":22,
						"TEXCOORD_0":23,
						"TEXCOORD_1":24
					},
					"indices":25,
					"material":5
				},
				{
					"attributes":{
						"POSITION":26,
						"NORMAL":27,
						"TEXCOORD_0":28,
						"TEXCOORD_1":29
					},
					"indices":30,
					"material":6
				},
				{
					"attributes":{
						"POSITION":31,
						"NORMAL":32,
						"TEXCOORD_0":33,
						"TEXCOORD_1":34
					},
					"indices":35,
					"material":7
				}
			]
		},
		{
			"name":"chandel",
			"primitives":[
				{
					"attributes":{
						"POSITION":36,
						"NORMAL":37,
						"TEXCOORD_0":38
					},
					"indices":39,
					"material":8
				}
			]
		},
		{
			"name":"Mesh.021",
			"primitives":[
				{
					"attributes":{
						"POSITION":40,
						"NORMAL":41,
						"TEXCOORD_0":42,
						"TEXCOORD_1":43,
						"TEXCOORD_2":44,
						"TEXCOORD_3":45,
						"TEXCOORD_4":46,
						"TEXCOORD_5":47,
						"TEXCOORD_6":48,
						"TEXCOORD_7":49
					},
					"indices":50,
					"material":9
				}
			]
		},
		{
			"name":"bar",
			"primitives":[
				{
					"attributes":{
						"POSITION":51,
						"NORMAL":52,
						"TEXCOORD_0":53
					},
					"indices":54,
					"material":10
				},
				{
					"attributes":{
						"POSITION":55,
						"NORMAL":56,
						"TEXCOORD_0":57
					},
					"indices":58,
					"material":11
				}
			]
		},
		{
			"name":"sphere-podium-01",
			"primitives":[
				{
					"attributes":{
						"POSITION":59,
						"NORMAL":60,
						"TEXCOORD_0":61
					},
					"indices":62,
					"material":12
				}
			]
		},
		{
			"name":"Cube.001",
			"primitives":[
				{
					"attributes":{
						"POSITION":63,
						"NORMAL":64,
						"TEXCOORD_0":65
					},
					"indices":66
				}
			]
		}
	],
	"accessors":[
		{
			"bufferView":0,
			"componentType":5126,
			"count":3763,
			"max":[
				1.0000001192092896,
				0.5049999952316284,
				1.0000001192092896
			],
			"min":[
				-1.0000001192092896,
				-0.5049999952316284,
				-1.0000001192092896
			],
			"type":"VEC3"
		},
		{
			"bufferView":1,
			"componentType":5126,
			"count":3763,
			"type":"VEC3"
		},
		{
			"bufferView":2,
			"componentType":5126,
			"count":3763,
			"type":"VEC2"
		},
		{
			"bufferView":3,
			"componentType":5123,
			"count":15906,
			"type":"SCALAR"
		},
		{
			"bufferView":4,
			"componentType":5126,
			"count":3953,
			"max":[
				0.7978252172470093,
				1.2758513689041138,
				0.8002153635025024
			],
			"min":[
				-0.8047611713409424,
				0.4665454626083374,
				-0.8023710250854492
			],
			"type":"VEC3"
		},
		{
			"bufferView":5,
			"componentType":5126,
			"count":3953,
			"type":"VEC3"
		},
		{
			"bufferView":6,
			"componentType":5126,
			"count":3953,
			"type":"VEC2"
		},
		{
			"bufferView":7,
			"componentType":5123,
			"count":15906,
			"type":"SCALAR"
		},
		{
			"bufferView":8,
			"componentType":5126,
			"count":4043,
			"max":[
				0.6345797777175903,
				1.9161149263381958,
				0.6366047859191895
			],
			"min":[
				-0.6395912170410156,
				1.2726587057113647,
				-0.6375662088394165
			],
			"type":"VEC3"
		},
		{
			"bufferView":9,
			"componentType":5126,
			"count":4043,
			"type":"VEC3"
		},
		{
			"bufferView":10,
			"componentType":5126,
			"count":4043,
			"type":"VEC2"
		},
		{
			"bufferView":11,
			"componentType":5123,
			"count":15906,
			"type":"SCALAR"
		},
		{
			"bufferView":12,
			"componentType":5126,
			"count":4139,
			"max":[
				0.50577712059021,
				2.407212972640991,
				0.509324848651886
			],
			"min":[
				-0.5152073502540588,
				1.8916161060333252,
				-0.5116596221923828
			],
			"type":"VEC3"
		},
		{
			"bufferView":13,
			"componentType":5126,
			"count":4139,
			"type":"VEC3"
		},
		{
			"bufferView":14,
			"componentType":5126,
			"count":4139,
			"type":"VEC2"
		},
		{
			"bufferView":15,
			"componentType":5123,
			"count":15906,
			"type":"SCALAR"
		},
		{
			"bufferView":16,
			"componentType":5126,
			"count":8170,
			"max":[
				8.75037956237793,
				8.747909545898438,
				26.213991165161133
			],
			"min":[
				-8.746509552001953,
				-8.748979568481445,
				26.122730255126953
			],
			"type":"VEC3"
		},
		{
			"bufferView":17,
			"componentType":5126,
			"count":8170,
			"type":"VEC3"
		},
		{
			"bufferView":18,
			"componentType":5126,
			"count":8170,
			"type":"VEC2"
		},
		{
			"bufferView":19,
			"componentType":5126,
			"count":8170,
			"type":"VEC2"
		},
		{
			"bufferView":20,
			"componentType":5123,
			"count":34560,
			"type":"SCALAR"
		},
		{
			"bufferView":21,
			"componentType":5126,
			"count":52093,
			"max":[
				8.853130340576172,
				8.853519439697266,
				26.723876953125
			],
			"min":[
				-8.853110313415527,
				-8.852709770202637,
				26.124021530151367
			],
			"type":"VEC3"
		},
		{
			"bufferView":22,
			"componentType":5126,
			"count":52093,
			"type":"VEC3"
		},
		{
			"bufferView":23,
			"componentType":5126,
			"count":52093,
			"type":"VEC2"
		},
		{
			"bufferView":24,
			"componentType":5126,
			"count":52093,
			"type":"VEC2"
		},
		{
			"bufferView":25,
			"componentType":5123,
			"count":303828,
			"type":"SCALAR"
		},
		{
			"bufferView":26,
			"componentType":5126,
			"count":208521,
			"max":[
				8.747010231018066,
				8.744500160217285,
				26.20990562438965
			],
			"min":[
				-8.743090629577637,
				-8.745590209960938,
				6.342200756072998
			],
			"type":"VEC3"
		},
		{
			"bufferView":27,
			"componentType":5126,
			"count":208521,
			"type":"VEC3"
		},
		{
			"bufferView":28,
			"componentType":5126,
			"count":208521,
			"type":"VEC2"
		},
		{
			"bufferView":29,
			"componentType":5126,
			"count":208521,
			"type":"VEC2"
		},
		{
			"bufferView":30,
			"componentType":5125,
			"count":1222932,
			"type":"SCALAR"
		},
		{
			"bufferView":31,
			"componentType":5126,
			"count":2466,
			"max":[
				16.955799102783203,
				16.956480026245117,
				6.572969436645508
			],
			"min":[
				-16.955799102783203,
				-16.95648765563965,
				5.835725784301758
			],
			"type":"VEC3"
		},
		{
			"bufferView":32,
			"componentType":5126,
			"count":2466,
			"type":"VEC3"
		},
		{
			"bufferView":33,
			"componentType":5126,
			"count":2466,
			"type":"VEC2"
		},
		{
			"bufferView":34,
			"componentType":5126,
			"count":2466,
			"type":"VEC2"
		},
		{
			"bufferView":35,
			"componentType":5123,
			"count":4188,
			"type":"SCALAR"
		},
		{
			"bufferView":36,
			"componentType":5126,
			"count":2191,
			"max":[
				12.307149887084961,
				2.4862890243530273,
				-0.08048223704099655
			],
			"min":[
				-12.246755599975586,
				-2.486287832260132,
				-35.94937515258789
			],
			"type":"VEC3"
		},
		{
			"bufferView":37,
			"componentType":5126,
			"count":2191,
			"type":"VEC3"
		},
		{
			"bufferView":38,
			"componentType":5126,
			"count":2191,
			"type":"VEC2"
		},
		{
			"bufferView":39,
			"componentType":5123,
			"count":9021,
			"type":"SCALAR"
		},
		{
			"bufferView":40,
			"componentType":5126,
			"count":1801,
			"max":[
				5.157455921173096,
				6.677026748657227,
				0.1236448585987091
			],
			"min":[
				-2.7750861644744873,
				-1.7895127534866333,
				-1.0552083253860474
			],
			"type":"VEC3"
		},
		{
			"bufferView":41,
			"componentType":5126,
			"count":1801,
			"type":"VEC3"
		},
		{
			"bufferView":42,
			"componentType":5126,
			"count":1801,
			"type":"VEC2"
		},
		{
			"bufferView":43,
			"componentType":5126,
			"count":1801,
			"type":"VEC2"
		},
		{
			"bufferView":44,
			"componentType":5126,
			"count":1801,
			"type":"VEC2"
		},
		{
			"bufferView":45,
			"componentType":5126,
			"count":1801,
			"type":"VEC2"
		},
		{
			"bufferView":46,
			"componentType":5126,
			"count":1801,
			"type":"VEC2"
		},
		{
			"bufferView":47,
			"componentType":5126,
			"count":1801,
			"type":"VEC2"
		},
		{
			"bufferView":48,
			"componentType":5126,
			"count":1801,
			"type":"VEC2"
		},
		{
			"bufferView":49,
			"componentType":5126,
			"count":1801,
			"type":"VEC2"
		},
		{
			"bufferView":50,
			"componentType":5123,
			"count":7209,
			"type":"SCALAR"
		},
		{
			"bufferView":51,
			"componentType":5126,
			"count":2015,
			"max":[
				6.85172700881958,
				3.650961399078369,
				3.121305053355172e-05
			],
			"min":[
				-6.862412929534912,
				-3.6690425872802734,
				-0.7603726983070374
			],
			"type":"VEC3"
		},
		{
			"bufferView":52,
			"componentType":5126,
			"count":2015,
			"type":"VEC3"
		},
		{
			"bufferView":53,
			"componentType":5126,
			"count":2015,
			"type":"VEC2"
		},
		{
			"bufferView":54,
			"componentType":5123,
			"count":8448,
			"type":"SCALAR"
		},
		{
			"bufferView":55,
			"componentType":5126,
			"count":2058,
			"max":[
				6.357789039611816,
				1.1307146549224854,
				-3.7829995155334473
			],
			"min":[
				-4.547393321990967,
				-6.4996538162231445,
				-11.187684059143066
			],
			"type":"VEC3"
		},
		{
			"bufferView":56,
			"componentType":5126,
			"count":2058,
			"type":"VEC3"
		},
		{
			"bufferView":57,
			"componentType":5126,
			"count":2058,
			"type":"VEC2"
		},
		{
			"bufferView":58,
			"componentType":5123,
			"count":8448,
			"type":"SCALAR"
		},
		{
			"bufferView":59,
			"componentType":5126,
			"count":1687,
			"max":[
				4.989811420440674,
				8.861030578613281,
				6.418581008911133
			],
			"min":[
				-7.616989612579346,
				-4.9872846603393555,
				-10.005023002624512
			],
			"type":"VEC3"
		},
		{
			"bufferView":60,
			"componentType":5126,
			"count":1687,
			"type":"VEC3"
		},
		{
			"bufferView":61,
			"componentType":5126,
			"count":1687,
			"type":"VEC2"
		},
		{
			"bufferView":62,
			"componentType":5123,
			"count":9522,
			"type":"SCALAR"
		},
		{
			"bufferView":63,
			"componentType":5126,
			"count":980,
			"max":[
				1.1216989755630493,
				3.5755834579467773,
				1.1216663122177124
			],
			"min":[
				-1.119524359703064,
				0.4279381036758423,
				-1.1195570230484009
			],
			"type":"VEC3"
		},
		{
			"bufferView":64,
			"componentType":5126,
			"count":980,
			"type":"VEC3"
		},
		{
			"bufferView":65,
			"componentType":5126,
			"count":980,
			"type":"VEC2"
		},
		{
			"bufferView":66,
			"componentType":5123,
			"count":5136,
			"type":"SCALAR"
		}
	],
	"bufferViews":[
		{
			"buffer":0,
			"byteLength":45156,
			"byteOffset":0,
			"target":34962
		},
		{
			"buffer":0,
			"byteLength":45156,
			"byteOffset":45156,
			"target":34962
		},
		{
			"buffer":0,
			"byteLength":30104,
			"byteOffset":90312,
			"target":34962
		},
		{
			"buffer":0,
			"byteLength":31812,
			"byteOffset":120416,
			"target":34963
		},
		{
			"buffer":0,
			"byteLength":47436,
			"byteOffset":152228,
			"target":34962
		},
		{
			"buffer":0,
			"byteLength":47436,
			"byteOffset":199664,
			"target":34962
		},
		{
			"buffer":0,
			"byteLength":31624,
			"byteOffset":247100,
			"target":34962
		},
		{
			"buffer":0,
			"byteLength":31812,
			"byteOffset":278724,
			"target":34963
		},
		{
			"buffer":0,
			"byteLength":48516,
			"byteOffset":310536,
			"target":34962
		},
		{
			"buffer":0,
			"byteLength":48516,
			"byteOffset":359052,
			"target":34962
		},
		{
			"buffer":0,
			"byteLength":32344,
			"byteOffset":407568,
			"target":34962
		},
		{
			"buffer":0,
			"byteLength":31812,
			"byteOffset":439912,
			"target":34963
		},
		{
			"buffer":0,
			"byteLength":49668,
			"byteOffset":471724,
			"target":34962
		},
		{
			"buffer":0,
			"byteLength":49668,
			"byteOffset":521392,
			"target":34962
		},
		{
			"buffer":0,
			"byteLength":33112,
			"byteOffset":571060,
			"target":34962
		},
		{
			"buffer":0,
			"byteLength":31812,
			"byteOffset":604172,
			"target":34963
		},
		{
			"buffer":0,
			"byteLength":98040,
			"byteOffset":635984,
			"target":34962
		},
		{
			"buffer":0,
			"byteLength":98040,
			"byteOffset":734024,
			"target":34962
		},
		{
			"buffer":0,
			"byteLength":65360,
			"byteOffset":832064,
			"target":34962
		},
		{
			"buffer":0,
			"byteLength":65360,
			"byteOffset":897424,
			"target":34962
		},
		{
			"buffer":0,
			"byteLength":69120,
			"byteOffset":962784,
			"target":34963
		},
		{
			"buffer":0,
			"byteLength":625116,
			"byteOffset":1031904,
			"target":34962
		},
		{
			"buffer":0,
			"byteLength":625116,
			"byteOffset":1657020,
			"target":34962
		},
		{
			"buffer":0,
			"byteLength":416744,
			"byteOffset":2282136,
			"target":34962
		},
		{
			"buffer":0,
			"byteLength":416744,
			"byteOffset":2698880,
			"target":34962
		},
		{
			"buffer":0,
			"byteLength":607656,
			"byteOffset":3115624,
			"target":34963
		},
		{
			"buffer":0,
			"byteLength":2502252,
			"byteOffset":3723280,
			"target":34962
		},
		{
			"buffer":0,
			"byteLength":2502252,
			"byteOffset":6225532,
			"target":34962
		},
		{
			"buffer":0,
			"byteLength":1668168,
			"byteOffset":8727784,
			"target":34962
		},
		{
			"buffer":0,
			"byteLength":1668168,
			"byteOffset":10395952,
			"target":34962
		},
		{
			"buffer":0,
			"byteLength":4891728,
			"byteOffset":12064120,
			"target":34963
		},
		{
			"buffer":0,
			"byteLength":29592,
			"byteOffset":16955848,
			"target":34962
		},
		{
			"buffer":0,
			"byteLength":29592,
			"byteOffset":16985440,
			"target":34962
		},
		{
			"buffer":0,
			"byteLength":19728,
			"byteOffset":17015032,
			"target":34962
		},
		{
			"buffer":0,
			"byteLength":19728,
			"byteOffset":17034760,
			"target":34962
		},
		{
			"buffer":0,
			"byteLength":8376,
			"byteOffset":17054488,
			"target":34963
		},
		{
			"buffer":0,
			"byteLength":26292,
			"byteOffset":17062864,
			"target":34962
		},
		{
			"buffer":0,
			"byteLength":26292,
			"byteOffset":17089156,
			"target":34962
		},
		{
			"buffer":0,
			"byteLength":17528,
			"byteOffset":17115448,
			"target":34962
		},
		{
			"buffer":0,
			"byteLength":18042,
			"byteOffset":17132976,
			"target":34963
		},
		{
			"buffer":0,
			"byteLength":21612,
			"byteOffset":17151020,
			"target":34962
		},
		{
			"buffer":0,
			"byteLength":21612,
			"byteOffset":17172632,
			"target":34962
		},
		{
			"buffer":0,
			"byteLength":14408,
			"byteOffset":17194244,
			"target":34962
		},
		{
			"buffer":0,
			"byteLength":14408,
			"byteOffset":17208652,
			"target":34962
		},
		{
			"buffer":0,
			"byteLength":14408,
			"byteOffset":17223060,
			"target":34962
		},
		{
			"buffer":0,
			"byteLength":14408,
			"byteOffset":17237468,
			"target":34962
		},
		{
			"buffer":0,
			"byteLength":14408,
			"byteOffset":17251876,
			"target":34962
		},
		{
			"buffer":0,
			"byteLength":14408,
			"byteOffset":17266284,
			"target":34962
		},
		{
			"buffer":0,
			"byteLength":14408,
			"byteOffset":17280692,
			"target":34962
		},
		{
			"buffer":0,
			"byteLength":14408,
			"byteOffset":17295100,
			"target":34962
		},
		{
			"buffer":0,
			"byteLength":14418,
			"byteOffset":17309508,
			"target":34963
		},
		{
			"buffer":0,
			"byteLength":24180,
			"byteOffset":17323928,
			"target":34962
		},
		{
			"buffer":0,
			"byteLength":24180,
			"byteOffset":17348108,
			"target":34962
		},
		{
			"buffer":0,
			"byteLength":16120,
			"byteOffset":17372288,
			"target":34962
		},
		{
			"buffer":0,
			"byteLength":16896,
			"byteOffset":17388408,
			"target":34963
		},
		{
			"buffer":0,
			"byteLength":24696,
			"byteOffset":17405304,
			"target":34962
		},
		{
			"buffer":0,
			"byteLength":24696,
			"byteOffset":17430000,
			"target":34962
		},
		{
			"buffer":0,
			"byteLength":16464,
			"byteOffset":17454696,
			"target":34962
		},
		{
			"buffer":0,
			"byteLength":16896,
			"byteOffset":17471160,
			"target":34963
		},
		{
			"buffer":0,
			"byteLength":20244,
			"byteOffset":17488056,
			"target":34962
		},
		{
			"buffer":0,
			"byteLength":20244,
			"byteOffset":17508300,
			"target":34962
		},
		{
			"buffer":0,
			"byteLength":13496,
			"byteOffset":17528544,
			"target":34962
		},
		{
			"buffer":0,
			"byteLength":19044,
			"byteOffset":17542040,
			"target":34963
		},
		{
			"buffer":0,
			"byteLength":11760,
			"byteOffset":17561084,
			"target":34962
		},
		{
			"buffer":0,
			"byteLength":11760,
			"byteOffset":17572844,
			"target":34962
		},
		{
			"buffer":0,
			"byteLength":7840,
			"byteOffset":17584604,
			"target":34962
		},
		{
			"buffer":0,
			"byteLength":10272,
			"byteOffset":17592444,
			"target":34963
		}
	],
	"buffers":[
		{
			"byteLength":17602716,
			"uri":"tier4.bin"
		}
	]
}
